<?xml version="1.0" encoding="UTF-8"?>
<!DOCTYPE svg PUBLIC "-//W3C//DTD SVG 1.1//EN" "http://www.w3.org/Graphics/SVG/1.1/DTD/svg11.dtd">
<!-- Creator: CorelDRAW 2019 (64-Bit) -->
<svg xmlns="http://www.w3.org/2000/svg" xml:space="preserve" width="297mm" height="210mm" version="1.1" style="shape-rendering:geometricPrecision; text-rendering:geometricPrecision; image-rendering:optimizeQuality; fill-rule:evenodd; clip-rule:evenodd"
viewBox="0 0 29700 21000"
 xmlns:xlink="http://www.w3.org/1999/xlink"
 xmlns:xodm="http://www.corel.com/coreldraw/odm/2003">
 <defs>
  <style type="text/css">
   <![CDATA[
    .str2 {stroke:#B7CBD8;stroke-width:20;stroke-miterlimit:22.9256}
    .str0 {stroke:#A2D9F7;stroke-width:20;stroke-miterlimit:22.9256}
    .str1 {stroke:#71839C;stroke-width:20;stroke-miterlimit:22.9256}
    .str4 {stroke:#6B7E97;stroke-width:20;stroke-miterlimit:22.9256}
    .str3 {stroke:#657991;stroke-width:20;stroke-miterlimit:22.9256}
    .str6 {stroke:#1A8497;stroke-width:20;stroke-miterlimit:22.9256}
    .str8 {stroke:#69CACF;stroke-width:20;stroke-miterlimit:22.9256}
    .str7 {stroke:#6ACBD1;stroke-width:20;stroke-miterlimit:22.9256}
    .str5 {stroke:white;stroke-width:20;stroke-miterlimit:22.9256}
    .fil0 {fill:#FEFEFE}
    .fil1 {fill:#B7CBD8}
    .fil9 {fill:#B7CBD7}
    .fil7 {fill:#A2D9F7}
    .fil6 {fill:#7688A1}
    .fil8 {fill:#6B7E97}
    .fil12 {fill:#1A8497}
    .fil2 {fill:#45446C}
    .fil11 {fill:#69CACF}
    .fil4 {fill:#CCAD00}
    .fil10 {fill:#F3F1E1}
    .fil5 {fill:#FFD500}
    .fil3 {fill:gold}
    .fil13 {fill:#2B2A29;fill-rule:nonzero}
   ]]>
  </style>
 </defs>
 <g id="Слой_x0020_1">
  <metadata id="CorelCorpID_0Corel-Layer"/>
  <ellipse class="fil0" cx="15128.08" cy="10355.77" rx="11853.33" ry="10318.76"/>
  <g id="_2386714233552">
   <path class="fil1" d="M11222.22 10783.59c-26.65,-44.53 -26.58,-70.98 -25.48,-135.41 2.63,-156.75 14.57,-115.17 39.86,-131.62 26.16,22.84 8.91,-8.5 24.29,27.15 0.06,0.14 44.89,204.7 -38.67,239.88zm140.02 -1157.46l13.59 -28.6 20.13 -26.79c19.22,-21.61 -43.21,-25.8 28.24,-16.65 23.49,52.39 6.41,15.94 -5.84,29.51 -7.67,85.65 -89.05,280.66 -114.13,395.87 -17.24,79.16 -24.84,153.52 -36.2,235.12 -21.43,153.88 -6.47,159.37 -68.72,184.18 -74.91,-195.93 73.32,-631.2 162.93,-772.64zm582.46 -902.01c0,28.79 6.89,23.09 -21.3,16.28l-38.33 39.66c-0.57,22.55 4.06,15.88 -20.72,10.56l-21.21 15.26c-210.65,172.17 -402.31,422.16 -541.92,749.83 -138.67,325.5 -172.02,718.64 -181.55,1107.57 -34.58,1409.58 360.73,808.08 835.53,779.67 450.55,-26.94 1283.11,123.81 1676.17,266.05 408.79,147.94 592.37,305.91 861.45,420.02 383.9,162.83 696.02,93.6 1099.3,-1.89 183.91,-43.55 838.74,-250.78 938.19,-337.66 -45.99,-212.62 -196.14,-561.66 -283.41,-757.96 -281.39,-633.03 -592.74,-1069.03 -1046.61,-1564.29 -352.62,-384.79 -1013.92,-854.11 -1600.67,-1009.3 -653,-172.72 -1197.86,-46.55 -1654.92,266.2z"/>
   <path class="fil1" d="M13068.17 13289.6c49.54,-192.3 73.86,-223.97 69.54,-455.99l89.12 17.28c-9.23,184.53 -50.82,366.65 -158.66,438.71zm-1225.03 -4483.72c0,-27.08 -6.21,-20.91 21.21,-15.26l20.72 -10.56 38.33 -39.66 21.3 -16.28c457.06,-312.75 1001.92,-438.92 1654.92,-266.2 586.75,155.19 1248.05,624.51 1600.67,1009.3 453.87,495.26 765.22,931.26 1046.61,1564.29 87.27,196.3 237.42,545.34 283.41,757.96 -99.45,86.88 -754.28,294.11 -938.19,337.66 -403.28,95.49 -715.4,164.72 -1099.3,1.89 -269.08,-114.11 -452.66,-272.08 -861.45,-420.02 -393.06,-142.24 -1225.62,-292.99 -1676.17,-266.05 -474.8,28.41 -870.11,629.91 -835.53,-779.67 9.53,-388.93 42.88,-782.07 181.55,-1107.57 139.61,-327.67 331.27,-577.66 541.92,-749.83zm-382.36 295.85c50.77,-160.96 259.48,-384.82 358.12,-466.51 153.92,-127.41 301.32,-227.33 528.63,-315.98 1056.49,-411.94 2276.77,202.43 2972.17,981.87 75.24,84.33 339.81,372.62 383.47,456.72 2.95,2.79 7.59,2.92 8.92,8.28l59.65 72.47c299.58,364.75 592.44,941.38 760.29,1392.34 58.17,156.29 141.45,382.85 176.16,551.82 18.42,22.35 21.75,-32.49 12.71,35.5l-29.15 -16.58c-112.16,-24.29 -90.41,-54.59 -125.15,-167.09 -155.71,-504.24 -399.14,-974.99 -673.84,-1405.55 -426.09,-667.85 -1118.13,-1396.31 -1861.57,-1703.07 -290.29,-119.77 -628.05,-206.74 -981.03,-206.95 -512.84,-0.31 -949.97,166.05 -1299.12,482.6 -89.65,81.28 -209.51,201.16 -277.41,311.89 -16.39,32.96 5.22,2.37 -23.9,42.47l-41.03 44.75c12.89,-49.34 -0.79,-61.42 52.08,-98.98zm3784.65 -499.98l210.54 172.53c68.33,80.66 115.17,107.41 195.21,179.79 45.45,41.09 53.21,94.25 148.89,64.57 83.65,-18.8 192.77,-77 259.49,-124.14l95.27 -58.22c48.07,-51.22 98.9,-74.53 154.64,-119.28 54,-43.36 104.61,-77.05 150.79,-130.37 132.63,-153.16 111.39,-163.35 -2.83,-323.72 -88.49,-66.18 -84.21,-120.87 -255.86,-203.92 -100.54,-48.63 -216.38,-134.4 -298.26,-158.56l-14.67 -12.99 -13.09 -3.55 -19.14 -12.54c-177.26,-105.32 -440.3,-192.48 -617.99,-282.35 179.27,35.34 467.43,154.86 623.03,246.02l80.94 35.28 177.75 113.9c2.87,1.79 6.7,4.29 9.51,6.16 91.54,60.42 269.99,177.09 344.99,253.55 89.73,37.66 377.75,330.58 454.69,416.61 64.54,72.14 132.46,163.6 193.14,244.87 55.16,73.89 126.19,167.44 174.61,247.28 449.35,740.87 533.12,1006.57 824.52,1786.61 91.7,245.45 161.49,454.26 3.62,688.16l-409.68 465.37 -363.7 293.06c-42.37,30.03 -84.59,48.74 -105.42,87.77 208.61,18.21 904.02,-648 1051.8,-1042.57 21.4,210.77 -65.4,307.15 -155.99,431.84 -62.9,86.57 -202.23,226.98 -274.63,296.7l-8.06 42.56 43.44 -5.25c253.95,-178.66 541.48,-447.93 449.34,-815.04 -21.25,-84.68 -42.48,-68.83 -89.95,-240.06 -67.96,-245.17 -210,-607.76 -241.24,-731.14 139.82,36.47 336.43,125.71 455.75,189.09 101.71,54.04 300.33,209.69 417.75,219.72 -11.83,-98.99 -185.47,-185.71 -287.62,-240.93 -102.33,-55.32 -230.71,-120.8 -346.84,-168.71 -313.66,-129.37 -257.77,-27.32 -331.72,-200.31 -162.72,-380.68 -316.71,-689.1 -530.36,-1032.58 -218.64,-351.43 -445.68,-594.23 -729.3,-849.94 -444.26,-400.54 -1121.38,-757.62 -1725.97,-885.4 -252.09,-53.3 -659.98,-115.06 -923.35,-111.6 -316.23,4.13 -621.55,64.05 -884.06,166.6 -395.71,154.58 -974.28,583.61 -1230.27,865.32l-241.07 290.7c-138.58,170.13 -304.25,448.84 -366.19,680.7 -23.08,86.41 -27.47,125.14 -61.26,204.85 -281.86,664.84 -140.38,1400.54 -183.3,1641.01 -31.29,175.37 -85.97,208.2 -75.08,435.54 15.25,318.29 151.95,557.59 317.17,704.64l64.54 53.12c64.62,22.23 130.87,64.74 201.42,93.47 202.01,82.29 455.6,173.28 676.1,200.12 48.11,261.29 225.85,678.72 392.69,779.1 220.9,132.94 638.55,-141.6 637.1,-448.62l4.19 -129.08c19.79,0.26 7.71,-8.02 41.81,1.59 38.58,10.86 32.77,14.49 49.49,26.17 213.16,103.74 223.41,103 360.81,253.05 78.48,85.7 204.87,212.53 379.22,231.39 -2.81,-47.52 15.51,-0.81 -18.64,-48.24 -136.89,-20.67 -265.8,-155.97 -326.47,-233.26 -92.22,-117.52 -156.88,-162.01 -312.5,-233.24 -185.41,-84.89 -692.45,-200.71 -917.7,-195.87l-101.93 -12.05c2.96,5.92 4.76,9.41 5.87,16.55 1.05,6.9 11.56,18.74 14.6,22.98 135.56,36.01 541.73,78.88 627.9,124.76 28.11,396.1 -164.51,710.65 -415.81,564.34 -155.53,-90.53 -352.47,-545.7 -368.88,-677.11l-24.16 -26.23 44.8 -16.45 2.44 -29.1c-492.02,-121.09 -1064.93,-249.85 -1197.28,-670.59 -24.75,-21.98 -16.83,26.51 -21.25,-41.38l19.88 18.51c1.43,2.45 5.29,9.89 6.66,12.39 1.43,2.61 2.98,9.37 4.9,13.88 196.19,308.67 430.77,359.39 875.72,461.78 285.49,65.68 849.66,189.86 1140.83,185l23.63 -27.33c-192.77,-9.35 -505,-83.21 -697.12,-121.46 -229.92,-45.76 -445.37,-98.99 -667.98,-148.71 -272.39,-60.84 -399.46,-109.57 -540.25,-271.71 -210.28,-242.21 -206.38,-351.86 -213.34,-606.2l18.64 -92.09c28.4,44.14 23.32,69.6 34.52,127.42 20.29,168.94 162.37,349.2 369.1,312.17 197.25,-35.34 251.18,-139.56 533.62,-147.11 325.57,-8.7 887.45,82.5 1198.96,153.74 367.66,84.07 689.17,211.62 977.64,381.93 518.09,305.86 582.66,256.19 1057.36,224.31 25.5,-24.99 21.27,-20.64 35.73,-62.39 -60.78,-9.3 -215.81,22.68 -298.64,25.33 -307.19,9.78 -499.38,-98.18 -754.98,-242.55 -648.94,-366.5 -1331.51,-510.47 -2107.62,-544.73 -249.11,-10.99 -360.73,19.23 -554.58,110.38 -196.02,92.21 -346.97,-3.18 -398.03,-172.55 -24.55,-15.54 -14.36,37.42 -22.16,-40.63l-4.51 -25.88 37.95 14.58 5.65 48.33c36.48,85.62 135.57,166.64 287.16,143.18 298.25,-46.13 133.44,-227.95 1117.69,-100.05 1939.42,252.05 1606.76,916.69 2753.13,688.69 376.21,-74.83 670.99,-155.71 1018.01,-294.73 217,-86.94 166.14,-112.44 309.32,-99.23l51.22 14.74c-15.95,23.3 1.32,15.1 -44.53,41.95 -60.68,11.01 -229.64,94.75 -310.01,127.11 -233.12,93.82 -574.89,192.39 -823.1,253.54 -182.79,45.03 -122.87,22.8 -138.52,67.6 271.68,21.82 1126.29,-288.16 1323.84,-406.25 21.01,-29.4 -36.18,-15.82 47.02,-27.57 -0.25,50.85 -7.72,5.19 8.8,70.94l130.22 593.36c-421.75,271.03 -1197.67,501.24 -1792.38,559.32 -1508.78,147.37 -1152.22,-361.44 -1681.57,-504.05 -98.4,-26.51 -104.7,0.76 -122.34,18.58 683.23,135.75 264.49,750.97 1889.04,546.64 231.15,-29.07 637.92,-127.18 692.69,-132.45 21.6,-13.81 -19.99,-1.18 33.19,-19.01 25.31,-8.48 34.73,-7.64 60.49,-12.13 190.16,-53.79 379.27,-123.14 556.23,-200.62l392.91 -187.29c53.56,-17.69 79.39,-0.93 134.34,-39.84 3.66,-3.02 9.69,-11.51 11.63,-8.21 4.76,8.16 16.58,-10.83 21.84,-15.37 24.62,-21.27 10.08,4.37 28.69,-34.53l-25.5 -7.4 -88.43 14.95c-9,9.91 -1.75,38.24 -28.42,10.36 -23.74,-24.84 -10.71,-20.5 -16.11,-53.23 -13.82,-236.95 -132.18,-502.66 -152.83,-709.53 -12.44,-18.86 -1.61,17.21 -19.55,-33.35 -7.13,-20.13 -8.61,-37.31 -12.55,-57.33 -49.38,-228.61 -204.81,-616.31 -300.51,-817.78 -385.15,-810.83 -769.43,-1339.31 -1416.34,-1945.26 -760.87,-712.69 -2121.72,-1154.03 -3084.82,-514.79 -121.7,80.76 -146.19,123.49 -166.44,98.52 49.7,-43.33 98.95,-107.78 152.22,-159.79 157.73,-154 333.42,-294.9 541.66,-396.01 647.14,-314.18 1380.39,-199.9 2000.91,121.11 204.68,105.88 594.22,346.06 731.78,495.75zm510.91 372.99c-49.62,-290.62 -196.96,-700.25 50.62,-854.25 266.41,-165.72 601.86,116.06 690.74,307.65 -34.07,68.82 -269.65,271.73 -330.66,318.27 -67.98,51.86 -319.65,203.5 -410.7,228.33zm-2847.29 -1304.55c-12.33,13.02 20.25,17.66 -39.72,32.07 -83.39,20.04 -15.88,3.9 -43.51,-10.39l81.35 -27.15c400.63,-264.49 1109.4,-332.99 1647.27,-224.13 480.73,97.31 1044.19,345.76 1416.24,560.28 -596.3,116.06 -298.06,644.31 -280.96,923.9 -161.32,-132.28 -287.01,-284.55 -559.62,-497.26 -569.26,-444.17 -1205.26,-745.85 -1967.57,-679.96 -160.06,13.84 -291.9,59.08 -433.69,77.48 102.36,-31.32 170.24,-103.91 439.04,-170.63 109.29,-27.14 501.42,-51.62 552.24,-85.85 -312.35,-103.46 -681.73,91.22 -811.07,101.64z"/>
   <path class="fil1" d="M14215.6 7646.43c91.84,-61.69 1206.23,383.81 1276.3,659.46 -94.08,-15.04 -473.43,-291.33 -610.17,-364.72 -167.12,-89.7 -662.15,-292.06 -666.13,-294.74zm-1308.43 18.29l1.88 5.47c129.34,-10.42 498.72,-205.1 811.07,-101.64 -50.82,34.23 -442.95,58.71 -552.24,85.85 -268.8,66.72 -336.68,139.31 -439.04,170.63 141.79,-18.4 273.63,-63.64 433.69,-77.48 762.31,-65.89 1398.31,235.79 1967.57,679.96 272.61,212.71 398.3,364.98 559.62,497.26 -17.1,-279.59 -315.34,-807.84 280.96,-923.9 -372.05,-214.52 -935.51,-462.97 -1416.24,-560.28 -537.87,-108.86 -1246.64,-40.36 -1647.27,224.13z"/>
   <path class="fil1" d="M11460.78 9101.73l12.85 11.76c67.9,-110.73 187.76,-230.61 277.41,-311.89 349.15,-316.55 786.28,-482.91 1299.12,-482.6 352.98,0.21 690.74,87.18 981.03,206.95 743.44,306.76 1435.48,1035.22 1861.57,1703.07 274.7,430.56 518.13,901.31 673.84,1405.55 34.74,112.5 12.99,142.8 125.15,167.09l16.44 -18.92c-34.71,-168.97 -117.99,-395.53 -176.16,-551.82 -167.85,-450.96 -460.71,-1027.59 -760.29,-1392.34l-68.57 -80.75c-43.66,-84.1 -308.23,-372.39 -383.47,-456.72 -695.4,-779.44 -1915.68,-1393.81 -2972.17,-981.87 -227.31,88.65 -374.71,188.57 -528.63,315.98 -98.64,81.69 -307.35,305.55 -358.12,466.51z"/>
   <path class="fil1" d="M19110.04 12611.92c165.69,-165.18 477.71,-571.1 476.81,-947.53 -0.66,-279.75 -224.54,-544.6 -355.75,-646.52 -33.53,-26.04 -111.43,-109.44 -145.88,-73.75 -84.31,87.37 724.99,341.93 300.22,1161.62 -318.36,614.37 -1027.43,1020.51 -1707.85,1261.63 -873.57,309.58 -1738.84,356.2 -2650.11,210.58l-711.35 -126.12c-30,2.64 -23.86,3.68 -36.76,10.48 23.74,20.06 10.58,11.34 41.25,26.61 330.46,164.41 1278.7,230.31 1606.21,230.31 1151.48,0 2426.8,-353.27 3183.21,-1107.31z"/>
   <path class="fil1" d="M15756.34 8974.74c91.05,-24.83 342.72,-176.47 410.7,-228.33 61.01,-46.54 296.59,-249.45 330.66,-318.27 -88.88,-191.59 -424.33,-473.37 -690.74,-307.65 -247.58,154 -100.24,563.63 -50.62,854.25z"/>
   <path class="fil1" d="M14215.6 7646.43c3.98,2.68 499.01,205.04 666.13,294.74 136.74,73.39 516.09,349.68 610.17,364.72 -70.07,-275.65 -1184.46,-721.15 -1276.3,-659.46z"/>
   <path class="fil1" d="M12640.92 12902.24c176.21,22.16 201.93,187.51 166.3,364.5 -151.49,-22.93 -181.73,-199.58 -166.3,-364.5zm-75.09 -5.72l31.2 4.82 -16.75 31.8 13.68 184.55 37.25 65.08 10.57 26.34c41.28,36.88 31.87,42.51 115.97,76.32 -27.83,21.82 -27.7,22.18 -53.19,8.71l-13.31 0.35c-56.46,-30.17 -48.73,-30.48 -78.08,-92.47l-3.2 6.74c-22.23,-22.02 -10.99,23.29 -27.12,-52.62l-34.49 -105.96 -18.35 -55.77c-1.58,-4.75 -8.96,-18.09 -9.92,-26.03 -0.84,-6.87 -3.71,-8.22 -6.02,-12.09 0.22,68.52 -1.74,102.58 13.75,169.2 6.39,173.64 287.71,359.78 338.96,91.89 42.2,-220.64 -93.2,-422.43 -309.02,-354.67 -11.91,57.7 -1.9,21.21 8.07,33.81z"/>
   <path class="fil1" d="M15793.84 9117.41c-22.47,27.31 -8.51,8.32 -18.72,41.42l63.31 -12.58c262.47,-67.53 709.84,-409.85 772.43,-591.78 -75.59,9.27 -291.99,246.87 -385.7,312.85 -135.87,95.68 -275.88,169.79 -431.32,250.09z"/>
   <path class="fil1" d="M11375.83 9597.53c6.83,34.23 16.58,28.6 -13.59,28.6 -89.61,141.44 -237.84,576.71 -162.93,772.64 62.25,-24.81 47.29,-30.3 68.72,-184.18 11.36,-81.6 18.96,-155.96 36.2,-235.12 25.08,-115.21 106.46,-310.22 114.13,-395.87l-22.4 -12.86 -20.13 26.79z"/>
   <path class="fil1" d="M12640.92 12902.24c-15.43,164.92 14.81,341.57 166.3,364.5 35.63,-176.99 9.91,-342.34 -166.3,-364.5z"/>
   <path class="fil1" d="M16474.64 8243.91c-75,-76.46 -253.45,-193.13 -344.99,-253.55 -2.81,-1.87 -6.64,-4.37 -9.51,-6.16l-177.75 -113.9c-39.31,-9.07 -12.04,2.99 -53.35,-15.71 -1.18,-0.54 -25.75,-18.27 -27.59,-19.57 -155.6,-91.16 -443.76,-210.68 -623.03,-246.02 177.69,89.87 440.73,177.03 617.99,282.35 34.77,-10.49 34.79,-20.93 19.14,12.54l13.09 3.55c32.98,-11 31.61,-18.48 14.67,12.99 81.88,24.16 197.72,109.93 298.26,158.56 171.65,83.05 167.37,137.74 255.86,203.92l-22.35 -37.17 39.56 18.17z"/>
   <path class="fil1" d="M13068.17 13289.6c107.84,-72.06 149.43,-254.18 158.66,-438.71l-89.12 -17.28c4.32,232.02 -20,263.69 -69.54,455.99z"/>
   <path class="fil1" d="M11222.22 10783.59c83.56,-35.18 38.73,-239.74 38.67,-239.88 -15.38,-35.65 1.87,-4.31 -24.29,-27.15 -25.29,16.45 -37.23,-25.13 -39.86,131.62 -1.1,64.43 -1.17,90.88 25.48,135.41z"/>
   <path class="fil1" d="M15800.07 9018.64c-95.68,29.68 -103.44,-23.48 -148.89,-64.57 -80.04,-72.38 -126.88,-99.13 -195.21,-179.79l-210.54 -172.53 44.71 41.23c84.76,58.63 29.16,36.63 87.95,83.46l82.72 58.83c40.59,33.73 23.92,28.4 55.65,69.39l206.01 184.27c39.35,20.48 56.42,-0.68 77.6,-20.29z"/>
   <path class="fil1" d="M12527.82 13125.49c-15.49,-66.62 -13.53,-100.68 -13.75,-169.2 2.31,3.87 5.18,5.22 6.02,12.09 0.96,7.94 8.34,21.28 9.92,26.03l18.35 55.77 -2.1 -110.23c-16.99,7.92 -57.97,-6.62 -53.19,100.57 1.66,37.48 3.94,74.78 34.75,84.97z"/>
   <path class="fil1" d="M12613.17 13202.02c29.35,61.99 21.62,62.3 78.08,92.47 21.22,-38.07 7.27,-27.84 13.31,-0.35 25.49,13.47 25.36,13.11 53.19,-8.71 -84.1,-33.81 -74.69,-39.44 -115.97,-76.32l37.08 46.7c1.35,-2.79 13.81,2.25 13.95,9.3l-21.46 13.02c-7.09,-10.42 -14.13,-23.87 -24.18,-37.79l-14.95 -19.43c-1.87,-2.31 -7.85,-3.34 -9.26,-9.42 -1.46,-6.24 -6.48,-6.35 -9.79,-9.47z"/>
   <path class="fil1" d="M13267.26 12996.57c7.63,-13.61 6.26,-3 14.73,-36.09l18.3 -76.38c28.74,4.86 23.85,-0.16 62.46,11.15 -16.72,-11.68 -10.91,-15.31 -49.49,-26.17 -34.1,-9.61 -22.02,-1.33 -41.81,-1.59l-4.19 129.08z"/>
   <path class="fil1" d="M11046.7 11440.95c12.55,-7.51 15.4,12.02 21.67,-11.6 1.65,-6.23 10.66,-2.19 15.39,-4.72 -1.61,48.79 -13.55,22.38 16.1,51.65 -11.2,-57.82 -6.12,-83.28 -34.52,-127.42l-18.64 92.09z"/>
   <path class="fil1" d="M11473.63 9113.49l-12.85 -11.76c-52.87,37.56 -39.19,49.64 -52.08,98.98l41.03 -44.75c29.12,-40.1 7.51,-9.51 23.9,-42.47z"/>
   <path class="fil1" d="M12446.01 12696.56c-3.04,-4.24 -13.55,-16.08 -14.6,-22.98 -1.11,-7.14 -2.91,-10.63 -5.87,-16.55l101.93 12.05c-34.99,-32.02 -75.61,-37.98 -115.94,-4.1 11.4,44.33 -4.73,19.11 34.48,31.58z"/>
   <path class="fil1" d="M12582.85 13156.14c16.13,75.91 4.89,30.6 27.12,52.62 1.7,-30.42 -6.77,-23.03 21.24,-25.99l-37.25 -65.08 -11.11 38.45z"/>
   <path class="fil1" d="M17068.2 12613.64c42.85,-14.45 65.94,-8.36 74.43,-48.43 9.94,-46.96 10.61,-20.24 -14.46,-30.42 -37.29,-15.14 -16.55,5.49 -23.31,13.34l25.5 7.4c-18.61,38.9 -4.07,13.26 -28.69,34.53 -5.26,4.54 -17.08,23.53 -21.84,15.37 -1.94,-3.3 -7.97,5.19 -11.63,8.21z"/>
   <path class="fil1" d="M13141.76 12616.36c19.42,10.45 -20.05,4.04 32.79,12.47 42.41,6.74 4.3,2.75 32.28,-5.01 -13.53,-42.03 2,-25.18 -41.44,-34.79l-23.63 27.33z"/>
   <path class="fil1" d="M12909.05 7670.19l-1.88 -5.47 -81.35 27.15c27.63,14.29 -39.88,30.43 43.51,10.39 59.97,-14.41 27.39,-19.05 39.72,-32.07z"/>
   <path class="fil1" d="M16775.38 11991.13c-16.52,-65.75 -9.05,-20.09 -8.8,-70.94 -83.2,11.75 -26.01,-1.83 -47.02,27.57 67.03,19.57 3.96,-14.17 55.82,43.37z"/>
   <path class="fil1" d="M15838.43 9146.25l-63.31 12.58c10.21,-33.1 -3.75,-14.11 18.72,-41.42 -42.12,19.54 -22.99,3.43 -39.24,29.89 5.36,4.99 8.76,25.21 41.06,22.22 59.97,-5.58 29.95,-14.26 42.77,-23.27z"/>
   <path class="fil1" d="M11158.42 11514.81l16.93 -3.6 -5.65 -48.33 -33.44 11.3c7.8,78.05 -2.39,25.09 22.16,40.63z"/>
   <path class="fil1" d="M15236.54 12401.32c17.51,-6.27 37.18,-12.47 47.26,-18.1 13.04,-85.1 6.41,-16.03 -11.53,-44.29 -14.46,41.75 -10.23,37.4 -35.73,62.39z"/>
   <path class="fil1" d="M11375.83 9597.53l-13.59 28.6c30.17,0 20.42,5.63 13.59,-28.6l20.13 -26.79 22.4 12.86c12.25,-13.57 29.33,22.88 5.84,-29.51 -71.45,-9.15 -9.02,-4.96 -28.24,16.65l-20.13 26.79z"/>
   <path class="fil1" d="M17016.43 12563.08c-36.56,-9.88 1.14,8.92 -23.57,-13.46 -2.48,-2.23 -12.6,-11.51 -14.07,-18.4 -1.23,-5.73 -4.35,-7.51 -6.89,-11.01 5.4,32.73 -7.63,28.39 16.11,53.23 26.67,27.88 19.42,-0.45 28.42,-10.36z"/>
   <path class="fil1" d="M15891.04 13072.53c18.75,-2.99 38.27,-4.09 56.74,-10.22 21.66,-7.18 28.9,-15.72 36.94,-20.92 -25.76,4.49 -35.18,3.65 -60.49,12.13 -53.18,17.83 -11.59,5.2 -33.19,19.01z"/>
   <path class="fil1" d="M16819.07 11810.68c-3.34,-18.6 -4.66,-37.88 -11.05,-56.01 -7.71,-21.84 -14.33,-25.06 -21.05,-34.67 3.94,20.02 5.42,37.2 12.55,57.33 17.94,50.56 7.11,14.49 19.55,33.35z"/>
   <path class="fil1" d="M15942.39 7870.3l-80.94 -35.28c1.84,1.3 26.41,19.03 27.59,19.57 41.31,18.7 14.04,6.64 53.35,15.71zm-39.08 30.13c16.94,-31.47 18.31,-23.99 -14.67,-12.99l14.67 12.99zm-27.76 -16.54c15.65,-33.47 15.63,-23.03 -19.14,-12.54l19.14 12.54z"/>
   <path class="fil1" d="M14102.78 13379.69c27.96,-21.09 16.16,24.25 24.43,-27.15 -3.97,-2.62 -32.99,-15.72 -43.07,-21.09 34.15,47.43 15.83,0.72 18.64,48.24z"/>
   <path class="fil1" d="M16667.35 11905.76c45.85,-26.85 28.58,-18.65 44.53,-41.95l-51.22 -14.74 32.67 23.37 -25.98 33.32z"/>
   <path class="fil1" d="M16691.75 11801.66l29.15 16.58c9.04,-67.99 5.71,-13.15 -12.71,-35.5l-16.44 18.92z"/>
   <path class="fil1" d="M11115.02 11966.18l10.19 3.4c-1.92,-4.51 -3.47,-11.27 -4.9,-13.88 -1.37,-2.5 -5.23,-9.94 -6.66,-12.39l-19.88 -18.51c4.42,67.89 -3.5,19.4 21.25,41.38z"/>
   <path class="fil1" d="M11885.07 8780.06l-20.72 10.56c-27.42,-5.65 -21.21,-11.82 -21.21,15.26l21.21 -15.26c24.78,5.32 20.15,11.99 20.72,-10.56l38.33 -39.66c28.19,6.81 21.3,12.51 21.3,-16.28l-21.3 16.28 -38.33 39.66z"/>
   <path class="fil1" d="M12289.22 12708.55c5.69,-33.69 0.25,-20.14 20.64,-42.68l-44.8 16.45 24.16 26.23z"/>
   <polygon class="fil1" points="12580.28,12933.14 12597.03,12901.34 12565.83,12896.52 "/>
   <path class="fil1" d="M17902.98 12196.92l-43.44 5.25 8.06 -42.56c-2.45,3.91 -7.82,8.58 -8.76,10.72 -10.32,23.62 -2.13,55.93 44.14,26.59z"/>
   <polygon class="fil1" points="11136.26,11474.18 11169.7,11462.88 11131.75,11448.3 "/>
   <path class="fil1" d="M16059.56 8894.5l65.93 -33.1c2.78,-1.92 7.51,-5.99 9.73,-7.64 2.33,-1.73 8.1,-2.91 9.76,-8.54 1.72,-5.77 6.57,-5.97 9.85,-8.94l-95.27 58.22z"/>
   <path class="fil1" d="M15771.74 9838.58l-59.65 -72.47c-1.33,-5.36 -5.97,-5.49 -8.92,-8.28l68.57 80.75z"/>
   <path class="fil1" d="M11359.95 12372.5l-64.54 -53.12c2.88,3.1 6.59,7.32 8.66,9.24l55.88 43.88z"/>
  </g>
  <g id="_2386714265232">
   <path class="fil2" d="M13986.31 10451.29c-2.28,-5.45 -1.81,-4.48 -5.37,-8.23 -1.78,-1.87 -2.73,-2.21 -5.14,-4 -23.33,-17.33 -49.78,-41.25 -69.92,-61.28 -22.12,-22 -43.78,-45.51 -62.64,-70.79 -1.74,-2.33 -2.02,-3.14 -4.25,-5.19 -5.41,-4.98 -0.34,-1.36 -6.63,-4.41 -6.46,7.92 -142.56,110.57 -149.36,115.67 -13.04,9.78 -23.97,18.58 -37.27,28.51l-172.33 156.53c-5.92,5.7 -9.98,10.22 -15.79,15.97l-34.17 31.61c-33.48,27.99 -69.18,66.06 -102.99,94.33l-223.54 207.39c-5.47,5.5 -10.1,10.92 -15.94,15.8l-52.06 47.74c-7.18,7.21 -10.03,9.81 -17.92,16.1l-52.79 47.01c-29.53,22.95 -54.12,49.9 -90.17,73.12 -6.17,3.97 -17.92,8.5 -22.09,11.93 -6.09,5.02 -8.72,15.06 -9.31,22.62 -2.71,34.3 40.4,72.76 64.23,101.28l100.78 98.81c17.58,16.91 37.75,36.82 61.94,31.39 13.11,-2.95 12.95,-4.72 19.05,-15.13 11.78,-20.12 42.05,-57.69 57.43,-74.12 6.04,-6.46 7.88,-10.37 14.71,-17.04 7.25,-7.08 9.48,-11.27 15.86,-18.17 10.74,-11.61 21.75,-21.47 32.96,-32.81l130.37 -132.72c11.81,-11.79 19.9,-22.18 31.75,-34.03l23.4 -24.23c4.44,-3.71 5.59,-4.69 9.51,-8.63 22.75,-22.94 44.03,-44.08 66.89,-66.93l66.9 -64.64c22.48,-22.48 43.3,-43.3 65.78,-65.77l133.81 -131.55c39.53,-39.52 64.8,-59.59 106.64,-106.56l83.88 -97.57c6.17,-6.48 8.57,-10.53 14.74,-17 14.06,-14.77 33.86,-42.73 49.05,-55.01z"/>
   <path class="fil3" d="M14460.62 9537.28c7.36,3 2.31,0 8.62,5.03 0.16,0.13 4.19,4.21 4.54,4.62 53.91,62.56 75.28,126.86 75.28,217.14 10.64,2.21 19.9,6.84 32.27,9.34 11.81,2.38 23.76,2.79 37.83,5.21 26.03,4.47 47.49,10.65 68.95,20.24 25.34,11.33 39.46,15.29 54.7,34.91 14.49,18.63 62.56,64.97 84.88,91.97 6.74,8.15 15.22,14.47 22.48,22.66l104.87 115.07c-1.72,-3.99 -2.17,1.95 0.25,-2.94 1.35,-2.73 -0.91,0.48 2.32,-3.26 1.76,-2.02 4.93,-4.9 7.02,-6.89l96.22 -91.93c6.75,-6.16 2.23,-4.24 12.14,-6.12 -1.26,-8.85 -92.37,-114.16 -108.32,-132.1 -9.73,-10.95 -18.19,-20.03 -28.37,-30.6 -5.94,-6.16 -7.39,-9.77 -13.52,-15.96 -5.74,-5.8 -10.69,-9.79 -15.69,-16.06l-102.31 -108.63c-6.88,-6.8 -8.74,-10.19 -14.75,-17.01 -9.7,-11.02 -20.87,-19.63 -30.58,-30.65 -11.19,-12.71 -14.72,-19 -30.25,-30.99l-130.95 -111.73c-95.87,-77.62 -169.71,-124.17 -272.18,-181.43 -105.82,-59.15 -212.83,-96.7 -331.78,-124.1 -16.02,-3.68 -35.23,-8.18 -53.06,-8.18l268.59 187.29c45.63,32.81 87.09,63.94 130.07,99.01l61.23 52.17c10.35,10.3 19.1,16.88 29.44,27.26 5.27,5.28 22.4,26.47 30.06,26.66z"/>
   <path class="fil4" d="M13832.36 10297.39c6.29,3.05 1.22,-0.57 6.63,4.41 2.23,2.05 2.51,2.86 4.25,5.19 18.86,25.28 40.52,48.79 62.64,70.79 20.14,20.03 46.59,43.95 69.92,61.28 2.41,1.79 3.36,2.13 5.14,4 3.56,3.75 3.09,2.78 5.37,8.23 1.6,-6.85 23.86,-40.36 29.66,-50 8.55,-14.18 11.28,-21.69 23.29,-33.41 6.18,-6.04 9.87,-7.61 15.99,-13.5 9.9,-9.53 18.21,-19.48 28.32,-28.38 43.16,-38.01 93.45,-90.85 131.43,-122.6l218.97 -207.42c5.07,-5.07 8.49,-8.64 13.56,-13.65 6.2,-6.13 9.81,-7.59 15.97,-13.52 9.9,-9.53 18.21,-19.48 28.32,-28.38l59.12 -54.28c26.12,-19.74 89.37,-39.33 132.04,-38.25 58.13,1.48 111.02,76.05 159.24,124.26 9.76,9.77 19.12,18.32 28.38,28.33 14.72,15.91 71.12,79.3 86.71,85.64 0,-11.45 -1.64,-13.35 -2.27,-22.66l-104.87 -115.07c-7.26,-8.19 -15.74,-14.51 -22.48,-22.66 -22.32,-27 -70.39,-73.34 -84.88,-91.97 -15.24,-19.62 -29.36,-23.58 -54.7,-34.91 -21.46,-9.59 -42.92,-15.77 -68.95,-20.24 -14.07,-2.42 -26.02,-2.83 -37.83,-5.21 -12.37,-2.5 -21.63,-7.13 -32.27,-9.34 0,-90.28 -21.37,-154.58 -75.28,-217.14 -0.35,-0.41 -4.38,-4.49 -4.54,-4.62 -6.31,-5.03 -1.26,-2.03 -8.62,-5.03 2.97,16.57 15.7,11.23 28.15,64.83 19.2,82.69 -32.49,130.69 -83.15,181.81 -8.62,8.7 -15.48,13.07 -23.84,21.52l-254.03 244.95c-15.67,14.49 -30.11,30.08 -45.33,45.39l-69.16 66.92c-8.36,8.46 -15.22,12.83 -23.84,21.52l-57.81 55.59c-18.43,16.23 -10.95,16.49 -38,30.05l-61.25 27.53z"/>
   <path class="fil5" d="M14955.04 10063.47c0.63,9.31 2.27,11.21 2.27,22.66 31.38,0 40.24,-18.68 72.02,-50.46 10.73,-10.73 19.74,-20.05 30.64,-30.6 13.44,-13.02 13.02,-18.21 13.02,-52.74 -9.91,1.88 -5.39,-0.04 -12.14,6.12l-96.22 91.93c-2.09,1.99 -5.26,4.87 -7.02,6.89 -3.23,3.74 -0.97,0.53 -2.32,3.26 -2.42,4.89 -1.97,-1.05 -0.25,2.94z"/>
  </g>
  <g id="_2421847397824">
   <path class="fil2" d="M13992.75 10450.59c2.29,-5.45 1.82,-4.48 5.39,-8.23 1.79,-1.87 2.74,-2.21 5.16,-4 23.43,-17.33 49.99,-41.25 70.21,-61.28 22.21,-22.01 43.95,-45.51 62.89,-70.79 1.74,-2.33 2.02,-3.14 4.27,-5.19 5.43,-4.98 0.34,-1.36 6.65,-4.41 6.49,7.92 143.13,110.57 149.96,115.67 13.1,9.78 24.07,18.58 37.43,28.51l173.02 156.53c5.94,5.7 10.02,10.22 15.85,15.97l34.31 31.61c33.62,27.99 69.45,66.06 103.4,94.32l224.44 207.4c5.5,5.5 10.14,10.92 16.01,15.8l52.27 47.74c7.21,7.21 10.07,9.81 17.99,16.1l53 47.01c29.65,22.95 54.34,49.9 90.54,73.12 6.19,3.97 17.99,8.5 22.18,11.93 6.11,5.02 8.75,15.06 9.35,22.62 2.71,34.3 -40.57,72.76 -64.5,101.28l-101.19 98.81c-17.64,16.91 -37.89,36.81 -62.18,31.38 -13.16,-2.94 -13.01,-4.71 -19.13,-15.13 -11.82,-20.11 -42.21,-57.68 -57.66,-74.12 -6.06,-6.45 -7.92,-10.36 -14.77,-17.03 -7.27,-7.08 -9.52,-11.27 -15.92,-18.17 -10.78,-11.61 -21.84,-21.47 -33.1,-32.81l-130.89 -132.72c-11.85,-11.79 -19.98,-22.18 -31.88,-34.03l-23.49 -24.23c-4.46,-3.71 -5.62,-4.69 -9.55,-8.63 -22.84,-22.94 -44.21,-44.08 -67.16,-66.93l-67.17 -64.64c-22.57,-22.48 -43.47,-43.3 -66.04,-65.77l-134.36 -131.55c-39.68,-39.53 -65.06,-59.6 -107.06,-106.56l-84.22 -97.57c-6.19,-6.48 -8.61,-10.53 -14.8,-17.01 -14.12,-14.76 -33.99,-42.73 -49.25,-55z"/>
   <path class="fil3" d="M13516.54 9536.58c-7.4,3 -2.32,0 -8.66,5.03 -0.16,0.12 -4.2,4.21 -4.56,4.62 -54.12,62.56 -75.58,126.86 -75.58,217.14 -10.68,2.21 -19.98,6.84 -32.41,9.34 -11.85,2.38 -23.85,2.79 -37.97,5.21 -26.13,4.47 -47.69,10.65 -69.23,20.24 -25.45,11.33 -39.62,15.29 -54.93,34.91 -14.54,18.63 -62.81,64.97 -85.22,91.97 -6.76,8.15 -15.28,14.47 -22.57,22.66l-105.29 115.07c1.73,-3.99 2.18,1.95 -0.25,-2.94 -1.35,-2.73 0.91,0.48 -2.33,-3.26 -1.76,-2.02 -4.95,-4.9 -7.05,-6.89l-96.6 -91.93c-6.78,-6.17 -2.24,-4.24 -12.19,-6.12 1.27,-8.85 92.74,-114.16 108.75,-132.1 9.77,-10.95 18.27,-20.03 28.49,-30.6 5.96,-6.16 7.42,-9.77 13.58,-15.96 5.75,-5.8 10.72,-9.79 15.75,-16.07l102.71 -108.62c6.91,-6.81 8.79,-10.19 14.81,-17.01 9.75,-11.02 20.96,-19.63 30.71,-30.65 11.24,-12.71 14.78,-19 30.37,-30.99l131.47 -111.73c96.26,-77.63 170.4,-124.17 273.28,-181.43 106.25,-59.15 213.69,-96.7 333.12,-124.1 16.08,-3.68 35.38,-8.18 53.27,-8.18l-269.67 187.29c-45.81,32.81 -87.44,63.94 -130.59,99.01l-61.48 52.17c-10.39,10.3 -19.17,16.88 -29.56,27.26 -5.29,5.28 -22.49,26.47 -30.17,26.66z"/>
   <path class="fil4" d="M14147.32 10296.69c-6.31,3.05 -1.22,-0.57 -6.65,4.41 -2.25,2.05 -2.53,2.86 -4.27,5.19 -18.94,25.28 -40.68,48.78 -62.89,70.79 -20.22,20.03 -46.78,43.95 -70.21,61.28 -2.42,1.79 -3.37,2.13 -5.16,4 -3.57,3.75 -3.1,2.78 -5.39,8.23 -1.6,-6.85 -23.95,-40.36 -29.78,-50 -8.58,-14.18 -11.32,-21.69 -23.38,-33.41 -6.2,-6.04 -9.91,-7.62 -16.05,-13.5 -9.94,-9.53 -18.29,-19.48 -28.44,-28.38 -43.34,-38.01 -93.82,-90.85 -131.96,-122.6l-219.85 -207.42c-5.09,-5.08 -8.53,-8.64 -13.62,-13.65 -6.21,-6.13 -9.84,-7.59 -16.03,-13.52 -9.94,-9.53 -18.28,-19.48 -28.43,-28.38l-59.36 -54.28c-26.22,-19.74 -89.73,-39.34 -132.57,-38.25 -58.37,1.48 -111.47,76.05 -159.88,124.26 -9.8,9.77 -19.2,18.32 -28.49,28.33 -14.78,15.91 -71.41,79.3 -87.07,85.64 0,-11.45 1.65,-13.35 2.28,-22.66l105.29 -115.07c7.29,-8.19 15.81,-14.51 22.57,-22.66 22.41,-27 70.68,-73.34 85.22,-91.97 15.31,-19.62 29.48,-23.58 54.93,-34.91 21.54,-9.59 43.1,-15.77 69.23,-20.24 14.12,-2.42 26.12,-2.83 37.97,-5.21 12.43,-2.5 21.73,-7.13 32.41,-9.34 0,-90.28 21.46,-154.58 75.58,-217.14 0.36,-0.41 4.4,-4.5 4.56,-4.62 6.34,-5.03 1.26,-2.03 8.66,-5.03 -2.99,16.57 -15.77,11.23 -28.27,64.83 -19.27,82.69 32.62,130.69 83.48,181.81 8.66,8.7 15.55,13.07 23.94,21.52l255.05 244.95c15.74,14.49 30.24,30.08 45.52,45.38l69.43 66.93c8.4,8.46 15.28,12.83 23.94,21.52l58.04 55.59c18.51,16.23 10.99,16.49 38.15,30.05l61.5 27.53z"/>
   <path class="fil5" d="M13020.12 10062.77c-0.63,9.31 -2.28,11.21 -2.28,22.66 -31.5,0 -40.4,-18.68 -72.31,-50.46 -10.77,-10.73 -19.82,-20.05 -30.76,-30.6 -13.49,-13.02 -13.07,-18.21 -13.07,-52.74 9.95,1.88 5.41,-0.05 12.19,6.12l96.6 91.93c2.1,1.99 5.29,4.87 7.05,6.89 3.24,3.74 0.98,0.53 2.33,3.26 2.43,4.89 1.98,-1.05 0.25,2.94z"/>
  </g>
  <g id="_2421734073664">
   <path class="fil4" d="M7480.76 11333.51c63.4,0 239.24,-587.62 -46,-1128.55 -92.41,-175.23 -217.01,-308.8 -356.73,-444.89 -239.07,-232.91 -664.91,-501.32 -974.89,-659.79 0,783.95 248.89,1818.74 1023.38,2124.31 59.57,23.53 279.2,108.92 354.24,108.92z"/>
   <path class="fil4" d="M17497.75 16747.39c481.14,694.14 1195.2,778.25 2022.22,577.63 195.5,-47.43 484.36,-122.16 639.65,-194.15 -97.05,-140.01 -546.38,-387.29 -713.89,-483.31 -474.74,-272.13 -975.84,-382.67 -1518.36,-161.86 -163.98,66.72 -296.72,175.72 -429.62,261.69z"/>
   <path class="fil4" d="M22564.62 10453.75c6.56,-283.93 300.08,-853.48 -437.78,-1562.14 -153.28,-147.2 -255.04,-244.5 -432.51,-371.67 -162.71,-116.56 -328.9,-230.76 -507.33,-321.95 0,254.36 26.91,605.83 62.99,818.9 82.84,489.22 241.42,896.11 647.32,1179.28 141.09,98.42 443.23,257.58 667.31,257.58z"/>
   <path class="fil4" d="M7667.55 12754.65c92.3,0 271.29,-27.33 350.25,-45.1 0,-251.81 -116.5,-524.95 -219.64,-690.14 -256.59,-410.97 -672.88,-591.98 -1144.34,-721.66 -204.49,-56.24 -587.94,-127.03 -807.55,-144.7 30.67,127.17 218.07,430.53 293.36,551.25 331.85,532.25 830.93,1050.35 1527.92,1050.35z"/>
   <path class="fil4" d="M19575.87 14243.47c0,246.77 76.89,469.45 162.77,632.3 68.36,129.69 257.3,374.81 374.29,450.48 19.11,-12.36 30.72,-16.89 55.46,-36.64 275.73,-219.94 481.57,-677.18 481.57,-1046.14 0,-454.02 -182.35,-817.78 -330.17,-1169.85 -42.94,-102.31 -135.1,-237.57 -160.17,-341.51l-46.69 0c-29.21,121.07 -537.06,837.58 -537.06,1511.36z"/>
   <path class="fil4" d="M19132.24 16183.44c61.39,39.75 125.84,97.86 187.59,134.57 58.69,34.85 146.58,74.47 216.82,106.33 488,221.36 1058.62,96.61 1510.91,-127.48 138.31,-68.53 681.43,-380.41 746.55,-474.33 -93.41,-47.74 -201.9,-73.64 -303.56,-112.81 -108.11,-41.64 -205.82,-72.73 -336.1,-103.88 -412.65,-98.69 -736.81,-176 -1166.95,-62.37 -329.86,87.12 -703.38,362.67 -855.26,639.97z"/>
   <path class="fil4" d="M7130.52 14401.39c106.95,154.29 555.31,539.15 723.9,654.11 456.06,311.01 928.21,488.45 1503.08,324.33 131.3,-37.49 214.42,-97.92 318.11,-121.26 -10.31,-120.02 -148.15,-317.1 -217.15,-399.27 -571.67,-680.76 -1481.62,-648.41 -2327.94,-457.91z"/>
   <path class="fil4" d="M7971.11 14153.26c146.16,0 441.88,-46.15 537.03,-90.24 -17.51,-203.42 -169.86,-478.09 -270.3,-618.63 -118.91,-166.41 -298.12,-309.25 -486.53,-409.72 -86.9,-46.33 -219.78,-96.55 -316.94,-122.4 -122.33,-32.53 -254.46,-62.45 -380.25,-83.82 -290.89,-49.45 -544.86,-51.23 -880.93,-51.23 20.96,75.88 100.49,168.28 149.28,239.26 363.43,528.57 930.52,1136.78 1648.64,1136.78z"/>
   <path class="fil4" d="M22564.62 12732.11c303.83,0 493.51,-67.22 708.68,-172.56 541.2,-265.05 880.17,-891.46 1135.95,-1406.5 -424.98,0 -1218.55,195.35 -1578.5,460.13 -326.72,240.32 -493.93,543.57 -571.59,939.25 -23.08,117.58 -55.46,128.05 47.63,156.53 57.33,15.85 182.62,23.15 257.83,23.15z"/>
   <path class="fil4" d="M8181.25 8085.18l0 180.48c610.28,0 1014.58,-103.43 1387.2,-622.38 132.98,-185.23 211.05,-339.09 307.47,-560.15 51.57,-118.19 209.95,-527.88 219.99,-644.66 -148.51,11.94 -513.79,150.35 -667.45,212.38 -617.57,249.21 -1247.21,724.02 -1247.21,1434.33z"/>
   <path class="fil4" d="M22074.3 8265.66c0,-353.4 -6.45,-563.18 -214.45,-875.63 -232.81,-349.72 -617.53,-597.07 -1019.46,-752.03 -131.44,-50.67 -534.14,-210.29 -680.77,-222.09 26.12,108.33 69.58,226.46 108.11,346.7 36.12,112.81 87.34,233.34 135.08,343.22 326.91,752.27 773.46,1159.83 1671.49,1159.83z"/>
   <path class="fil4" d="M8694.93 6258.02c0,123.01 -27.83,338.37 46.72,338.37 570.56,0 971.39,-301.12 1205.2,-640.32 290.84,-421.97 357.06,-874.27 475.97,-1367.35 -236.87,19.05 -901.67,409.21 -1124.48,582.95 -273.63,213.41 -603.41,618.34 -603.41,1086.35z"/>
   <path class="fil4" d="M18151.55 15439.03c0,152.24 30.84,297.52 66.94,409.08 19.91,61.6 39.49,124.55 66.07,184.26 32.6,73.16 58.11,94.72 77.14,173.63 224.46,-18.03 567.26,-323.02 700.88,-518.44 310.23,-453.74 313.73,-1024.94 252.4,-1575.52 -13.3,-119.23 -42.64,-220.28 -42.64,-364.82 -90.26,23.26 -130.97,92.53 -192.64,152.24 -412.04,399.11 -928.15,876.95 -928.15,1539.57z"/>
   <path class="fil4" d="M10095.91 17153.43c451.02,101.51 839.82,336.4 1519.9,272.83 306.67,-28.64 475.23,-90.96 689.04,-214.13 128.63,-74.1 415.2,-328.24 452.92,-464.74 -179.78,-46.38 -852.06,-868.43 -2311.53,135.43 -93.41,64.24 -292.8,187.62 -350.33,270.61z"/>
   <path class="fil4" d="M19856.06 4566.18c0,357.44 262.77,1085.76 471.04,1394.66 43,63.76 153.7,198.17 212.77,245.62 96.97,77.88 170.79,137.06 288.72,194.79 118.67,58.08 197.87,94.27 334.52,127.97 54.11,13.37 146.28,31.89 194.1,38.87 198.37,28.96 249.39,114.43 204.27,-401.03 -51.13,-583.97 -554.52,-1060.21 -1051.26,-1307.97 -153.03,-76.33 -490.92,-256.2 -654.16,-292.91z"/>
   <path class="fil4" d="M9628.92 14108.12l0 270.7c0,368.15 290.32,825.48 513.71,969.99 247.6,-160.17 537.03,-649.82 537.03,-1015.1 0,-384.7 -56.45,-602.37 -203.58,-931.2 -65.17,-145.63 -259.76,-579.14 -356.81,-647.86 -158.83,289.99 -490.35,937.07 -490.35,1353.47z"/>
   <path class="fil4" d="M10913.17 14649.51c0,569.18 159.01,1025.07 565.63,1348.38 102.59,81.59 274.4,199.03 415.05,230.68 59.79,-247.99 210.15,-248.5 210.15,-834.65 0,-434.89 -314.34,-849.81 -565.85,-1122.61l-338.5 -349.74c-45.81,-42.63 -145.56,-121.07 -193.1,-151.81 -57.03,236.51 -93.38,590.73 -93.38,879.75z"/>
   <path class="fil4" d="M8461.45 15822.53l0 45.11c216.46,55.84 1256.28,1071.18 2366.47,526.73 126.01,-61.81 192.14,-121.57 295.39,-188.37 -42.96,-155.38 -337.64,-398.52 -476.94,-486.66 -827.24,-523.48 -1955.44,84.73 -2184.92,103.19z"/>
   <path class="fil4" d="M20649.96 12754.65l0 293.26c0,528.23 409.49,965.87 770.54,1150.45 589.68,-850.74 295.81,-1467.42 -215.03,-2205.97 -52.53,-75.98 -204.43,-318.76 -298.67,-343.05 -80.94,335.7 -256.84,695.46 -256.84,1105.31z"/>
   <path class="fil4" d="M21747.39 6393.37l0 157.88c0,417.26 304.57,872.17 560.39,1037.67 222.48,-143.92 490.35,-582.42 490.35,-947.43 0,-550.1 -91.34,-831.88 -342.45,-1315.9l-171.26 -330.83c-154.77,109.56 -537.03,1032.5 -537.03,1398.61z"/>
   <path class="fil4" d="M21140.31 10927.47c0,354.83 106.89,709.72 262.85,919.08 134.96,181.17 448.09,469.16 694.47,524.63 24.94,-103.4 99.4,-202.36 137.7,-318.12 176.26,-532.68 17.79,-1026.88 -300.96,-1464.12 -98.21,-134.73 -542.96,-670.5 -653.97,-699.12 -12.68,147.29 -68.91,335.57 -92.22,497.4 -24.96,173.42 -47.87,346.1 -47.87,540.25z"/>
   <path class="fil4" d="M15723.2 17266.21c49.08,177.69 346.16,450.99 517.7,560.07 624.87,397.3 1461.76,192.07 2097.44,49 -20.74,-55.34 -73.44,-91.23 -157.83,-163.33 -42.97,-36.71 -48.89,-34.39 -91.78,-69.22 -423.33,-343.66 -876.5,-669.75 -1501.61,-669.75 -367.93,0 -622.03,169.58 -863.92,293.23z"/>
   <path class="fil4" d="M13948.61 16747.39l350.24 0c0,-819.91 -538.13,-1276.02 -1281.23,-1514.26 -140.95,-45.19 -612.96,-174.11 -773.52,-177.58 23.66,98.21 76.09,204.78 117.13,292.89l295.61 549.04c242.14,392.8 720.65,849.91 1291.77,849.91z"/>
   <path class="fil4" d="M11917.19 17852.74l0 45.1c84.94,6.82 177.88,37.33 266.04,58.78 572.86,139.47 1285.57,210.72 1802.75,-90.35 166.74,-97.06 501.4,-391.04 546.38,-577.49 -851.4,-550.77 -1520.26,-267.68 -2265.07,293.1 -58.6,44.12 -104.52,83.74 -166.76,132.15 -71.02,55.21 -94.6,115.82 -183.34,138.71z"/>
   <path class="fil4" d="M6663.53 8197.99c0,491.56 156.65,815.57 461.11,1110.99 77.72,75.4 197.22,190.97 309.43,219.91 228.3,-416.86 326.89,-401.59 326.89,-1015.1 0,-305.84 -194.04,-661.34 -319.36,-864.49 -48.07,-77.91 -433.59,-640.8 -544.59,-669.44 -7.03,81.61 -52.59,199.72 -78.32,285.24 -74.52,247.6 -155.16,673.41 -155.16,932.89z"/>
   <path class="fil4" d="M7947.75 11649.34c0,303.27 124.29,545.03 233.5,744.41 681.96,-348.63 933.97,-719.53 933.97,-1533.96 0,-210.66 -78.82,-824.07 -140.1,-947.43 -190.81,123.47 -520.73,518.27 -658.51,717.29 -181.05,261.45 -368.86,591.8 -368.86,1019.69z"/>
   <path class="fil4" d="M21747.39 14040.45c340.21,157.7 871.06,93.84 1186.12,-72.23 533.34,-281.14 843.7,-739.61 1172.19,-1213.57 -1304.54,0 -2110.35,257.56 -2358.31,1285.8z"/>
   <path class="fil4" d="M15956.67 16724.83c250.03,0 12.25,42.86 420.46,0.16 702.92,-73.51 1136.81,-602.67 1419.88,-1177.31 61.47,-124.82 204.38,-397.73 214.45,-514.69l-750.16 177.6c-478.13,154.16 -857.06,368.15 -1108.35,778.99 -51.68,84.43 -105.16,218.13 -131.52,324.09 -22.04,88.53 -62.22,301.71 -64.76,411.16z"/>
   <path class="fil4" d="M8531.5 13205.83c0,810.62 229.95,748.88 303.53,1015.1 787.3,-402.47 897.56,-1176.29 696.05,-1958.24l-182.35 -613.35c-112.71,72.89 -428.05,547.75 -506.51,683.66 -128.57,222.76 -310.72,542.48 -310.72,872.83z"/>
   <path class="fil4" d="M22494.57 8536.35c0,334.29 139.33,820.66 350.25,969.97 154.19,-39.75 428.37,-330.13 518.8,-468.76 438.52,-672.18 145.67,-1455.06 -5.1,-2080.27 -139.41,90.22 -423.39,511.39 -537.09,676.69 -133.95,194.73 -326.86,584.49 -326.86,902.37z"/>
   <path class="fil4" d="M7644.22 9889.82c0,340.08 -10.07,254.39 70.05,586.5 422.72,-34 879.22,-364.88 1074.26,-744.22 231.82,-450.99 280,-960.52 280,-1511.57 -331.96,169.71 -634.44,399.03 -893.12,648.54 -260.92,251.67 -531.19,622.81 -531.19,1020.75z"/>
   <path class="fil4" d="M7457.4 6483.58c0,299.23 24.44,459.99 155.13,707.35 65.58,124.13 230.86,353.05 335.22,420.56 229.61,-148.56 560.39,-600 560.39,-970 0,-559.9 -76.48,-802.78 -334.66,-1300.85 -47.11,-90.85 -133.93,-233.12 -155.68,-323.31l-46.69 0c-45.76,189.7 -513.71,832.49 -513.71,1466.25z"/>
   <path class="fil4" d="M22681.39 10679.34c0,364.08 -15.64,276.34 70.05,631.63 213.15,0 516.12,-159.49 647.45,-254.26 578.02,-416.99 753.53,-1267.28 753.53,-1956.43 -102.04,22.97 -388.06,212.56 -485.71,275.2 -421.18,270.08 -985.32,768.79 -985.32,1303.86z"/>
   <path class="fil4" d="M20579.91 15236.01c305.77,68.82 185.66,180.48 863.95,180.48 194.1,0 407.67,-72.74 537.42,-134.98 405.21,-194.38 672.28,-414.16 986.15,-716.59 61.8,-59.57 133.51,-98.9 157.58,-186.1 -129.23,-10.39 -831.76,-120.08 -997.54,-106.73 -543.65,43.77 -1043.64,118.74 -1391.82,663.22 -53.01,82.89 -132.68,205.16 -155.74,300.7z"/>
   <path class="fil4" d="M14765.84 17018.09c0,575.83 723.85,457.17 723.85,90.24 0,-120.14 3.61,-200.84 -109.76,-300 -283.07,-247.63 -614.09,12.46 -614.09,209.76z"/>
  </g>
  <path class="fil6 str0" d="M17246.42 12473.64c20.83,-39.03 63.05,-57.74 105.42,-87.77l363.7 -293.06 409.68 -465.37c157.87,-233.9 88.08,-442.71 -3.62,-688.16 -291.4,-780.04 -375.17,-1045.74 -824.52,-1786.61 -48.42,-79.84 -119.45,-173.39 -174.61,-247.28 -60.68,-81.27 -128.6,-172.73 -193.14,-244.87 -76.94,-86.03 -364.96,-378.95 -454.69,-416.61l-39.56 -18.17 22.35 37.17c114.22,160.37 135.46,170.56 2.83,323.72 -46.18,53.32 -96.79,87.01 -150.79,130.37 -55.74,44.75 -106.57,68.06 -154.64,119.28 -3.28,2.97 -8.13,3.17 -9.85,8.94 -1.66,5.63 -7.43,6.81 -9.76,8.54 -2.22,1.65 -6.95,5.72 -9.73,7.64l-65.93 33.1c-66.72,47.14 -175.84,105.34 -259.49,124.14 -21.18,19.61 -38.25,40.77 -77.6,20.29l-206.01 -184.27c-31.73,-40.99 -15.06,-35.66 -55.65,-69.39l-82.72 -58.83c-58.79,-46.83 -3.19,-24.83 -87.95,-83.46l-44.71 -41.23c-137.56,-149.69 -527.1,-389.87 -731.78,-495.75 -620.52,-321.01 -1353.77,-435.29 -2000.91,-121.11 -208.24,101.11 -383.93,242.01 -541.66,396.01 -53.27,52.01 -102.52,116.46 -152.22,159.79 20.25,24.97 44.74,-17.76 166.44,-98.53 963.1,-639.23 2323.95,-197.89 3084.82,514.8 646.91,605.95 1031.19,1134.43 1416.34,1945.26 95.7,201.47 251.13,589.17 300.51,817.78 6.72,9.61 13.34,12.83 21.05,34.67 6.39,18.13 7.71,37.41 11.05,56.01 20.65,206.87 139.01,472.58 152.83,709.53 2.54,3.5 5.66,5.28 6.89,11.01 1.47,6.89 11.59,16.17 14.07,18.4 6.5,5.88 8.67,8.92 9.04,10.38 2.38,0.18 6.78,0.99 14.53,3.08l88.43 -14.95c6.76,-7.85 -13.98,-28.48 23.31,-13.34 24.18,9.81 24.41,-14.7 15.48,25.72l126.13 -87.39c-8.35,0.96 -16.14,1.15 -23.36,0.52zm-1407.99 -3327.39c-12.82,9.01 17.2,17.69 -42.77,23.27 -32.3,2.99 -35.7,-17.23 -41.06,-22.22 16.25,-26.46 -2.88,-10.35 39.24,-29.89 155.44,-80.3 295.45,-154.41 431.32,-250.09 93.71,-65.98 310.11,-303.58 385.7,-312.85 -62.59,181.93 -509.96,524.25 -772.43,591.78z"/>
  <path class="fil7 str1" d="M17246.42 12473.64c20.83,-39.03 63.05,-57.74 105.42,-87.77l363.7 -293.06 409.68 -465.37c157.87,-233.9 88.08,-442.71 -3.62,-688.16 -291.4,-780.04 -375.17,-1045.74 -824.52,-1786.61 -48.42,-79.84 -119.45,-173.39 -174.61,-247.28 -60.68,-81.27 -128.6,-172.73 -193.14,-244.87 -76.94,-86.03 -364.96,-378.95 -454.69,-416.61l-39.56 -18.17 22.35 37.17c114.22,160.37 135.46,170.56 2.83,323.72 -46.18,53.32 -96.79,87.01 -150.79,130.37 -55.74,44.75 -106.57,68.06 -154.64,119.28 -3.28,2.97 -8.13,3.17 -9.85,8.94 -1.66,5.63 -7.43,6.81 -9.76,8.54 -2.22,1.65 -6.95,5.72 -9.73,7.64l-65.93 33.1c-66.72,47.14 -175.84,105.34 -259.49,124.14 -21.18,19.61 -38.25,40.77 -77.6,20.29l-206.01 -184.27c-31.73,-40.99 -15.06,-35.66 -55.65,-69.39l-82.72 -58.83c-58.79,-46.83 -3.19,-24.83 -87.95,-83.46l-44.71 -41.23c-137.56,-149.69 -527.1,-389.87 -731.78,-495.75 -620.52,-321.01 -1353.77,-435.29 -2000.91,-121.11 -208.24,101.11 -383.93,242.01 -541.66,396.01 -53.27,52.01 -102.52,116.46 -152.22,159.79 20.25,24.97 44.74,-17.76 166.44,-98.53 963.1,-639.23 2323.95,-197.89 3084.82,514.8 646.91,605.95 1031.19,1134.43 1416.34,1945.26 95.7,201.47 251.13,589.17 300.51,817.78 6.72,9.61 13.34,12.83 21.05,34.67 6.39,18.13 7.71,37.41 11.05,56.01 20.65,206.87 139.01,472.58 152.83,709.53 2.54,3.5 5.66,5.28 6.89,11.01 1.47,6.89 11.59,16.17 14.07,18.4 6.5,5.88 8.67,8.92 9.04,10.38 2.38,0.18 6.78,0.99 14.53,3.08l88.43 -14.95c6.76,-7.85 -13.98,-28.48 23.31,-13.34 24.18,9.81 24.41,-14.7 15.48,25.72l126.13 -87.39c-8.35,0.96 -16.14,1.15 -23.36,0.52zm-1407.99 -3327.39c-12.82,9.01 17.2,17.69 -42.77,23.27 -32.3,2.99 -35.7,-17.23 -41.06,-22.22 16.25,-26.46 -2.88,-10.35 39.24,-29.89 155.44,-80.3 295.45,-154.41 431.32,-250.09 93.71,-65.98 310.11,-303.58 385.7,-312.85 -62.59,181.93 -509.96,524.25 -772.43,591.78z"/>
  <path class="fil1 str1" d="M17246.42 12473.64c20.83,-39.03 63.05,-57.74 105.42,-87.77l363.7 -293.06 409.68 -465.37c157.87,-233.9 88.08,-442.71 -3.62,-688.16 -291.4,-780.04 -375.17,-1045.74 -824.52,-1786.61 -48.42,-79.84 -119.45,-173.39 -174.61,-247.28 -60.68,-81.27 -128.6,-172.73 -193.14,-244.87 -76.94,-86.03 -364.96,-378.95 -454.69,-416.61l-39.56 -18.17 22.35 37.17c114.22,160.37 135.46,170.56 2.83,323.72 -46.18,53.32 -96.79,87.01 -150.79,130.37 -55.74,44.75 -106.57,68.06 -154.64,119.28 -3.28,2.97 -8.13,3.17 -9.85,8.94 -1.66,5.63 -7.43,6.81 -9.76,8.54 -2.22,1.65 -6.95,5.72 -9.73,7.64l-65.93 33.1c-66.72,47.14 -175.84,105.34 -259.49,124.14 -21.18,19.61 -38.25,40.77 -77.6,20.29l-206.01 -184.27c-31.73,-40.99 -15.06,-35.66 -55.65,-69.39l-82.72 -58.83c-58.79,-46.83 -3.19,-24.83 -87.95,-83.46l-44.71 -41.23c-137.56,-149.69 -527.1,-389.87 -731.78,-495.75 -620.52,-321.01 -1353.77,-435.29 -2000.91,-121.11 -208.24,101.11 -383.93,242.01 -541.66,396.01 -53.27,52.01 -102.52,116.46 -152.22,159.79 20.25,24.97 44.74,-17.76 166.44,-98.53 963.1,-639.23 2323.95,-197.89 3084.82,514.8 646.91,605.95 1031.19,1134.43 1416.34,1945.26 95.7,201.47 251.13,589.17 300.51,817.78 6.72,9.61 13.34,12.83 21.05,34.67 6.39,18.13 7.71,37.41 11.05,56.01 20.65,206.87 139.01,472.58 152.83,709.53 2.54,3.5 5.66,5.28 6.89,11.01 1.47,6.89 11.59,16.17 14.07,18.4 6.5,5.88 8.67,8.92 9.04,10.38 2.38,0.18 6.78,0.99 14.53,3.08l88.43 -14.95c6.76,-7.85 -13.98,-28.48 23.31,-13.34 24.18,9.81 24.41,-14.7 15.48,25.72l126.13 -87.39c-8.35,0.96 -16.14,1.15 -23.36,0.52zm-1407.99 -3327.39c-12.82,9.01 17.2,17.69 -42.77,23.27 -32.3,2.99 -35.7,-17.23 -41.06,-22.22 16.25,-26.46 -2.88,-10.35 39.24,-29.89 155.44,-80.3 295.45,-154.41 431.32,-250.09 93.71,-65.98 310.11,-303.58 385.7,-312.85 -62.59,181.93 -509.96,524.25 -772.43,591.78z"/>
  <path class="fil1 str1" d="M15838.43 9146.25c262.47,-67.53 709.84,-409.85 772.43,-591.78 -75.59,9.27 -291.99,246.87 -385.7,312.85 -135.87,95.68 -275.88,169.79 -431.32,250.09 -22.47,27.31 -8.51,8.32 -18.72,41.42l63.31 -12.58z"/>
  <path class="fil8 str2" d="M15838.43 9146.25c262.47,-67.53 709.84,-409.85 772.43,-591.78 -75.59,9.27 -291.99,246.87 -385.7,312.85 -135.87,95.68 -275.88,169.79 -431.32,250.09 -22.47,27.31 -8.51,8.32 -18.72,41.42l63.31 -12.58z"/>
  <path class="fil8 str3" d="M15838.43 9146.25c262.47,-67.53 709.84,-409.85 772.43,-591.78 -75.59,9.27 -291.99,246.87 -385.7,312.85 -135.87,95.68 -275.88,169.79 -431.32,250.09 -22.47,27.31 -8.51,8.32 -18.72,41.42l63.31 -12.58z"/>
  <path class="fil8 str3" d="M16167.04 8746.41c61.01,-46.54 296.59,-249.45 330.66,-318.27 -88.88,-191.59 -424.33,-473.37 -690.74,-307.65 -247.58,154 -100.24,563.63 -50.62,854.25 91.05,-24.83 342.72,-176.47 410.7,-228.33z"/>
  <path class="fil8 str3" d="M15491.9 8305.89c-70.07,-275.65 -1184.46,-721.15 -1276.3,-659.46 3.98,2.68 499.01,205.04 666.13,294.74 136.74,73.39 516.09,349.68 610.17,364.72z"/>
  <path class="fil8 str3" d="M15888.64 7887.44c32.98,-11 31.61,-18.48 14.67,12.99 81.88,24.16 197.72,109.93 298.26,158.56 171.65,83.05 167.37,137.74 255.86,203.92l-22.35 -37.17 39.56 18.17c-75,-76.46 -253.45,-193.13 -344.99,-253.55 -2.81,-1.87 -6.64,-4.37 -9.51,-6.16l-177.75 -113.9c-39.31,-9.07 -12.04,2.99 -53.35,-15.71 -1.18,-0.54 -25.75,-18.27 -27.59,-19.57 -155.6,-91.16 -443.76,-210.68 -623.03,-246.02 177.69,89.87 440.73,177.03 617.99,282.35 34.77,-10.5 34.79,-20.93 19.14,12.54l13.09 3.55z"/>
  <path class="fil8 str2" d="M15970.68 8000.87c-372.05,-214.52 -935.51,-462.97 -1416.24,-560.28 -537.87,-108.86 -1246.64,-40.36 -1647.27,224.13l1.88 5.47c129.34,-10.42 498.72,-205.1 811.07,-101.64 -50.82,34.23 -442.95,58.71 -552.24,85.85 -268.8,66.72 -336.68,139.31 -439.04,170.63 141.79,-18.4 273.63,-63.64 433.69,-77.48 762.31,-65.89 1398.31,235.79 1967.57,679.96 272.61,212.71 398.3,364.98 559.62,497.26 -17.1,-279.59 -315.34,-807.84 280.96,-923.9zm-1755.08 -354.44c91.84,-61.69 1206.23,383.81 1276.3,659.46 -94.08,-15.04 -473.43,-291.33 -610.17,-364.72 -167.12,-89.7 -662.15,-292.06 -666.13,-294.74z"/>
  <path class="fil8 str2" d="M14031.19 8525.95c-290.29,-119.77 -628.05,-206.74 -981.03,-206.95 -512.84,-0.31 -949.97,166.05 -1299.12,482.6 -89.65,81.28 -209.51,201.16 -277.41,311.89 -16.39,32.96 5.22,2.37 -23.9,42.47l-41.03 44.75c12.89,-49.34 -0.79,-61.42 52.08,-98.98 50.77,-160.96 259.48,-384.82 358.12,-466.51 153.92,-127.41 301.32,-227.33 528.63,-315.98 1056.49,-411.94 2276.77,202.43 2972.17,981.87 75.24,84.33 339.81,372.62 383.47,456.72 2.95,2.79 7.59,2.92 8.92,8.28l59.65 72.47c299.58,364.75 592.44,941.38 760.29,1392.34 58.17,156.29 141.45,382.85 176.16,551.82 18.42,22.35 21.75,-32.49 12.71,35.5l-29.15 -16.58c-112.16,-24.29 -90.41,-54.59 -125.15,-167.09 -155.71,-504.24 -399.14,-974.99 -673.84,-1405.55 -426.09,-667.85 -1118.13,-1396.31 -1861.57,-1703.07zm1038.93 431.01c-760.87,-712.69 -2121.72,-1154.03 -3084.82,-514.8 -121.7,80.77 -146.19,123.5 -166.44,98.53 49.7,-43.33 98.95,-107.78 152.22,-159.79 157.73,-154 333.42,-294.9 541.66,-396.01 647.14,-314.18 1380.39,-199.9 2000.91,121.11 204.68,105.88 594.22,346.06 731.78,495.75l210.54 172.53c68.33,80.66 115.17,107.41 195.21,179.79 45.45,41.09 53.21,94.25 148.89,64.57 83.65,-18.8 192.77,-77 259.49,-124.14l95.27 -58.22c48.07,-51.22 98.9,-74.53 154.64,-119.28 54,-43.36 104.61,-77.05 150.79,-130.37 132.63,-153.16 111.39,-163.35 -2.83,-323.72 -88.49,-66.18 -84.21,-120.87 -255.86,-203.92 -100.54,-48.63 -216.38,-134.4 -298.26,-158.56l-14.67 -12.99 -13.09 -3.55 -19.14 -12.54c-177.26,-105.32 -440.3,-192.48 -617.99,-282.35 179.27,35.34 467.43,154.86 623.03,246.02l80.94 35.28 177.75 113.9c2.87,1.79 6.7,4.29 9.51,6.16 91.54,60.42 269.99,177.09 344.99,253.55 89.73,37.66 377.75,330.58 454.69,416.61 64.54,72.14 132.46,163.6 193.14,244.87 55.16,73.89 126.19,167.44 174.61,247.28 449.35,740.87 533.12,1006.57 824.52,1786.61 91.7,245.45 161.49,454.26 3.62,688.16l-409.68 465.37 -363.7 293.06c-42.37,30.03 -84.59,48.74 -105.42,87.77 7.22,0.63 15.03,0.44 23.36,-0.52 232.7,-27.05 885.77,-661.13 1028.44,-1042.05 21.4,210.77 -65.4,307.15 -155.99,431.84 -62.9,86.57 -202.23,226.98 -274.63,296.7l-8.06 42.56 43.44 -5.25c253.95,-178.66 541.48,-447.93 449.34,-815.04 -21.25,-84.68 -42.48,-68.83 -89.95,-240.06 -67.96,-245.17 -210,-607.76 -241.24,-731.14 139.82,36.47 336.43,125.71 455.75,189.09 101.71,54.04 300.33,209.69 417.75,219.72 -11.83,-98.99 -185.47,-185.71 -287.62,-240.93 -102.33,-55.32 -230.71,-120.8 -346.84,-168.71 -313.66,-129.37 -257.77,-27.32 -331.72,-200.31 -162.72,-380.68 -316.71,-689.1 -530.36,-1032.58 -218.64,-351.43 -445.68,-594.23 -729.3,-849.94 -444.26,-400.54 -1121.38,-757.62 -1725.97,-885.4 -252.09,-53.3 -659.98,-115.06 -923.35,-111.6 -316.23,4.13 -621.55,64.05 -884.06,166.6 -395.71,154.58 -974.28,583.61 -1230.27,865.32l-241.07 290.7c-138.58,170.13 -304.25,448.84 -366.19,680.7 -23.08,86.41 -27.47,125.14 -61.26,204.85 -281.86,664.84 -140.38,1400.54 -183.3,1641.01 -31.29,175.37 -85.97,208.2 -75.08,435.54 15.25,318.29 151.95,557.59 317.17,704.64l64.54 53.12c64.62,22.23 130.87,64.74 201.42,93.47 202.01,82.29 455.6,173.28 676.1,200.12 48.11,261.29 225.85,678.72 392.69,779.1 220.9,132.93 638.55,-141.6 637.1,-448.62l4.19 -129.08c19.79,0.26 7.71,-8.02 41.81,1.59 38.58,10.86 32.77,14.49 49.49,26.17 213.16,103.74 223.41,103 360.81,253.05 78.48,85.7 204.87,212.53 379.22,231.39 -2.81,-47.52 15.51,-0.81 -18.64,-48.24 -136.89,-20.67 -265.8,-155.97 -326.47,-233.26 -92.22,-117.52 -156.88,-162.01 -312.5,-233.24 -185.41,-84.89 -692.45,-200.71 -917.7,-195.87l-101.93 -12.05c2.96,5.92 4.76,9.41 5.87,16.55 1.05,6.9 11.56,18.74 14.6,22.98 135.56,36.01 541.73,78.88 627.9,124.76 28.11,396.1 -164.51,710.65 -415.81,564.34 -155.53,-90.53 -352.47,-545.7 -368.88,-677.11l-24.16 -26.23 44.8 -16.45 2.44 -29.1c-492.02,-121.09 -1064.93,-249.85 -1197.28,-670.59 -24.75,-21.98 -16.83,26.51 -21.25,-41.38l19.88 18.51c1.43,2.45 5.29,9.89 6.66,12.39 1.43,2.61 2.98,9.37 4.9,13.88 196.19,308.67 430.77,359.39 875.72,461.78 285.49,65.68 849.66,189.86 1140.83,185l23.63 -27.33c-192.77,-9.35 -505,-83.21 -697.12,-121.46 -229.92,-45.76 -445.37,-98.99 -667.98,-148.71 -272.39,-60.84 -399.46,-109.57 -540.25,-271.71 -210.28,-242.21 -206.38,-351.86 -213.34,-606.2l18.64 -92.09c28.4,44.14 23.32,69.6 34.52,127.42 20.29,168.94 162.37,349.2 369.1,312.17 197.25,-35.34 251.18,-139.56 533.62,-147.11 325.57,-8.7 887.45,82.5 1198.96,153.74 367.66,84.07 689.17,211.62 977.64,381.93 518.09,305.86 582.66,256.19 1057.36,224.31 25.5,-24.99 21.27,-20.64 35.73,-62.39 -60.78,-9.3 -215.81,22.68 -298.64,25.33 -307.19,9.78 -499.38,-98.18 -754.98,-242.55 -648.94,-366.5 -1331.51,-510.47 -2107.62,-544.73 -249.11,-10.99 -360.73,19.23 -554.58,110.38 -196.02,92.21 -346.97,-3.18 -398.03,-172.55 -24.55,-15.54 -14.36,37.42 -22.16,-40.63l-4.51 -25.88 37.95 14.58 5.65 48.33c36.48,85.62 135.57,166.64 287.16,143.18 298.25,-46.13 133.44,-227.95 1117.69,-100.05 1939.42,252.05 1606.76,916.69 2753.13,688.69 376.21,-74.83 670.99,-155.71 1018.01,-294.73 217,-86.94 166.14,-112.44 309.32,-99.23l51.22 14.74c-15.95,23.3 1.32,15.1 -44.53,41.95 -60.68,11.01 -229.64,94.75 -310.01,127.11 -233.12,93.82 -574.89,192.39 -823.1,253.54 -182.79,45.03 -122.87,22.8 -138.52,67.6 271.68,21.82 1126.29,-288.16 1323.84,-406.25 21.01,-29.4 -36.18,-15.82 47.02,-27.57 -0.25,50.85 -7.72,5.19 8.8,70.94l130.22 593.36c-421.75,271.03 -1197.67,501.24 -1792.38,559.32 -1508.78,147.37 -1152.22,-361.44 -1681.57,-504.05 -98.4,-26.51 -104.7,0.76 -122.34,18.58 683.23,135.75 264.49,750.97 1889.04,546.64 231.15,-29.07 637.92,-127.18 692.69,-132.45 21.6,-13.81 -19.99,-1.18 33.19,-19.01 25.31,-8.48 34.73,-7.64 60.49,-12.13 190.16,-53.79 379.27,-123.14 556.23,-200.62l392.91 -187.29c53.56,-17.69 79.39,-0.93 134.34,-39.84 3.66,-3.02 9.69,-11.51 11.63,-8.21 4.76,8.16 16.58,-10.83 21.84,-15.37 24.62,-21.27 10.08,4.37 28.69,-34.53l-25.5 -7.4 -88.43 14.95c-9,9.91 -1.75,38.24 -28.42,10.36 -23.74,-24.84 -10.71,-20.5 -16.11,-53.23 -13.82,-236.95 -132.18,-502.66 -152.83,-709.53 -12.44,-18.86 -1.61,17.21 -19.55,-33.35 -7.13,-20.13 -8.61,-37.31 -12.55,-57.33 -49.38,-228.61 -204.81,-616.31 -300.51,-817.78 -385.15,-810.83 -769.43,-1339.31 -1416.34,-1945.26zm59.98 -529.45c-569.26,-444.17 -1205.26,-745.85 -1967.57,-679.96 -160.06,13.84 -291.9,59.08 -433.69,77.48 102.36,-31.32 170.24,-103.91 439.04,-170.63 109.29,-27.14 501.42,-51.62 552.24,-85.85 -312.35,-103.46 -681.73,91.22 -811.07,101.64 -12.33,13.02 20.25,17.66 -39.72,32.07 -83.39,20.04 -15.88,3.9 -43.51,-10.39l81.35 -27.15c400.63,-264.49 1109.4,-332.99 1647.27,-224.13 480.73,97.31 1044.19,345.76 1416.24,560.28 -596.3,116.06 -298.06,644.31 -280.96,923.9 -161.32,-132.28 -287.01,-284.55 -559.62,-497.26zm-3185.4 296.61c457.06,-312.75 1001.92,-438.92 1654.92,-266.2 586.75,155.19 1248.05,624.51 1600.67,1009.3 453.87,495.26 765.22,931.26 1046.61,1564.29 87.27,196.3 237.42,545.34 283.41,757.96 -99.45,86.88 -754.28,294.11 -938.19,337.66 -403.28,95.49 -715.4,164.72 -1099.3,1.89 -269.08,-114.11 -452.66,-272.08 -861.45,-420.02 -393.06,-142.24 -1225.62,-292.99 -1676.17,-266.05 -474.8,28.41 -870.11,629.91 -835.53,-779.67 9.53,-388.93 42.88,-782.07 181.55,-1107.57 139.61,-327.67 331.27,-577.66 541.92,-749.83 0,-27.08 -6.21,-20.91 21.21,-15.26l20.72 -10.56 38.33 -39.66 21.3 -16.28zm3811.64 250.62c-49.62,-290.62 -196.96,-700.25 50.62,-854.25 266.41,-165.72 601.86,116.06 690.74,307.65 -34.07,68.82 -269.65,271.73 -330.66,318.27 -67.98,51.86 -319.65,203.5 -410.7,228.33zm-2688.17 4314.86c49.54,-192.3 73.86,-223.97 69.54,-455.99l89.12 17.28c-9.23,184.53 -50.82,366.65 -158.66,438.71z"/>
  <path class="fil9 str2" d="M14881.73 7941.17c136.74,73.39 516.09,349.68 610.17,364.72 -70.07,-275.65 -1184.46,-721.15 -1276.3,-659.46 3.98,2.68 499.01,205.04 666.13,294.74z"/>
  <path class="fil9 str2" d="M13312.73 12654.65c15.47,-17.55 27.12,-39.62 118.92,-14.89 529.35,142.61 172.79,651.42 1681.57,504.05 594.71,-58.08 1370.63,-288.29 1792.38,-559.32l-130.22 -593.36c-51.86,-57.54 11.21,-23.8 -55.82,-43.37 -197.55,118.09 -1052.16,428.07 -1323.84,406.25 15.65,-44.8 -44.27,-22.57 138.52,-67.6 248.21,-61.15 589.98,-159.72 823.1,-253.54 80.37,-32.36 249.33,-116.1 310.01,-127.11l25.98 -33.32 -32.67 -23.37c-143.18,-13.21 -92.32,12.29 -309.32,99.23 -347.02,139.02 -641.8,219.9 -1018.01,294.73 -1146.37,228 -813.71,-436.64 -2753.13,-688.69 -984.25,-127.9 -819.44,53.92 -1117.69,100.05 -151.59,23.46 -250.68,-57.56 -287.16,-143.18l-16.93 3.6c51.06,169.37 202.01,264.76 398.03,172.55 193.85,-91.15 305.47,-121.37 554.58,-110.38 776.11,34.26 1458.68,178.23 2107.62,544.73 255.6,144.37 447.79,252.33 754.98,242.55 82.83,-2.65 237.86,-34.63 298.64,-25.33 17.94,28.26 24.57,-40.81 11.53,44.29 -10.08,5.63 -29.75,11.83 -47.26,18.1 -474.7,31.88 -539.27,81.55 -1057.36,-224.31 -288.47,-170.31 -609.98,-297.86 -977.64,-381.93 -311.51,-71.24 -873.39,-162.44 -1198.96,-153.74 -282.44,7.55 -336.37,111.77 -533.62,147.11 -206.73,37.03 -348.81,-143.23 -369.1,-312.17 -29.65,-29.27 -17.71,-2.86 -16.1,-51.65 -4.73,2.53 -13.74,-1.51 -15.39,4.72 -6.27,23.62 -9.12,4.09 -21.67,11.6 6.96,254.34 3.06,363.99 213.34,606.2 140.79,162.14 267.86,210.87 540.25,271.71 222.61,49.72 438.06,102.95 667.98,148.71 176.01,35.04 452.82,99.96 646.25,117.81 17.69,1.63 34.71,2.87 50.87,3.65 40.84,9.04 29.56,-5.31 39.31,27.87l108.03 37.75z"/>
  <path class="fil9 str2" d="M19088.27 10941.36l-255.29 -136.78c-116.65,-42.18 -270.61,-159.38 -356.1,-204.81 -119.32,-63.38 -315.93,-152.62 -455.75,-189.09 31.24,123.38 173.28,485.97 241.24,731.14 47.47,171.23 68.7,155.38 89.95,240.06 92.14,367.11 -195.39,636.38 -449.34,815.04 -46.27,29.34 -54.46,-2.97 -44.14,-26.59 0.94,-2.14 6.31,-6.81 8.76,-10.72 72.4,-69.72 211.73,-210.13 274.63,-296.7 90.59,-124.69 177.39,-221.07 155.99,-431.84 -142.67,380.92 -795.74,1015 -1028.44,1042.05l-126.13 87.39c-0.34,1.48 -0.67,3.04 -1.02,4.7 -8.49,40.07 -31.58,33.98 -74.43,48.43 -54.95,38.91 -80.78,22.15 -134.34,39.84l-392.91 187.29c-176.96,77.48 -366.07,146.83 -556.23,200.62 -8.04,5.2 -15.28,13.74 -36.94,20.92 -18.47,6.13 -37.99,7.23 -56.74,10.22 -54.77,5.27 -461.54,103.38 -692.69,132.45 -1624.55,204.33 -1205.81,-410.89 -1889.04,-546.64 1.19,-1.2 2.31,-2.42 3.42,-3.69l-108.03 -37.75c0.61,2.1 1.33,4.41 2.13,6.92 -27.98,7.76 10.13,11.75 -32.28,5.01 -52.84,-8.43 -13.37,-2.02 -32.79,-12.47 -291.17,4.86 -855.34,-119.32 -1140.83,-185 -444.95,-102.39 -679.53,-153.11 -875.72,-461.78l-10.19 -3.4c132.35,420.74 705.26,549.5 1197.28,670.59l-2.44 29.1c-20.39,22.54 -14.95,8.99 -20.64,42.68 16.41,131.41 213.35,586.58 368.88,677.11 251.3,146.31 443.92,-168.24 415.81,-564.34 -86.17,-45.88 -492.34,-88.75 -627.9,-124.76 -39.21,-12.47 -23.08,12.75 -34.48,-31.58 40.33,-33.88 80.95,-27.92 115.94,4.1 225.25,-4.84 732.29,110.98 917.7,195.87 155.62,71.23 220.28,115.72 312.5,233.24 60.67,77.29 189.58,212.59 326.47,233.26 10.08,5.37 39.1,18.47 43.07,21.09 -7.28,45.21 0.98,15.56 -15.97,22.15l176.64 94.92c-2.17,-1.9 -4.92,-4.26 -8.51,-7.3 12.9,-6.8 6.76,-7.84 36.76,-10.48l711.35 126.12c911.27,145.62 1776.54,99 2650.11,-210.58 680.42,-241.12 1389.49,-647.26 1707.85,-1261.63 424.77,-819.69 -384.53,-1074.25 -300.22,-1161.62 0.98,-1.03 2,-1.95 3.05,-2.76zm-6530.51 1921.35c215.82,-67.76 351.22,134.03 309.02,354.67 -51.25,267.89 -332.57,81.75 -338.96,-91.89 -30.81,-10.19 -33.09,-47.49 -34.75,-84.97 -4.78,-107.19 36.2,-92.65 53.19,-100.57l2.1 110.23 34.49 105.96 11.11 -38.45 -13.68 -184.55 -14.45 -36.62c-9.97,-12.6 -19.98,23.89 -8.07,-33.81z"/>
  <path class="fil9 str4" d="M17858.84 12170.33c0.94,-2.14 6.31,-6.81 8.76,-10.72 72.4,-69.72 211.73,-210.13 274.63,-296.7 90.59,-124.69 177.39,-221.07 155.99,-431.84 -142.67,380.92 -795.74,1015 -1028.44,1042.05l-126.13 87.39c-0.34,1.48 -0.67,3.04 -1.02,4.7 -8.49,40.07 -31.58,33.98 -74.43,48.43 -54.95,38.91 -80.78,22.15 -134.34,39.84l-392.91 187.29c-176.96,77.48 -366.07,146.83 -556.23,200.62 -8.04,5.2 -15.28,13.74 -36.94,20.92 -18.47,6.13 -37.99,7.23 -56.74,10.22 -54.77,5.27 -461.54,103.38 -692.69,132.45 -1624.55,204.33 -1205.81,-410.89 -1889.04,-546.64 1.19,-1.2 2.31,-2.42 3.42,-3.69l-108.03 -37.75c0.61,2.1 1.33,4.41 2.13,6.92 -27.98,7.76 10.13,11.75 -32.28,5.01 -52.84,-8.43 -13.37,-2.02 -32.79,-12.47 -291.17,4.86 -855.34,-119.32 -1140.83,-185 -444.95,-102.39 -679.53,-153.11 -875.72,-461.78l-10.19 -3.4c132.35,420.74 705.26,549.5 1197.28,670.59l-2.44 29.1c-20.39,22.54 -14.95,8.99 -20.64,42.68 16.41,131.41 213.35,586.58 368.88,677.11 251.3,146.31 443.92,-168.24 415.81,-564.34 -86.17,-45.88 -492.34,-88.75 -627.9,-124.76 -39.21,-12.47 -23.08,12.75 -34.48,-31.58 40.33,-33.88 80.95,-27.92 115.94,4.1 225.25,-4.84 732.29,110.98 917.7,195.87 155.62,71.23 220.28,115.72 312.5,233.24 60.67,77.29 189.58,212.59 326.47,233.26 10.08,5.37 39.1,18.47 43.07,21.09 -7.28,45.22 0.98,15.56 -15.97,22.15l176.63 94.92c-2.18,-1.9 -4.92,-4.28 -8.5,-7.3 12.9,-6.8 6.76,-7.84 36.76,-10.48l711.35 126.12c911.27,145.62 1776.54,99 2650.11,-210.58 680.42,-241.12 1389.49,-647.26 1707.85,-1261.63 424.77,-819.69 -384.53,-1074.25 -300.22,-1161.62 0.98,-1.03 2,-1.95 3.05,-2.76l-255.29 -136.78c-116.65,-42.18 -270.61,-159.38 -356.1,-204.81 -119.32,-63.38 -315.93,-152.62 -455.75,-189.09 31.24,123.38 173.28,485.97 241.24,731.14 47.47,171.23 68.7,155.38 89.95,240.06 92.14,367.11 -195.39,636.38 -449.34,815.04 -46.27,29.34 -54.46,-2.97 -44.14,-26.59zm-5301.08 692.38c215.82,-67.76 351.22,134.03 309.02,354.67 -51.25,267.89 -332.57,81.75 -338.96,-91.89 -30.81,-10.19 -33.09,-47.49 -34.75,-84.97 -4.78,-107.19 36.2,-92.65 53.19,-100.57l2.1 110.23 34.49 105.96 11.11 -38.45 -13.68 -184.55 -14.45 -36.62c-9.97,-12.6 -19.98,23.89 -8.07,-33.81z"/>
  <path class="fil10 str5" d="M12807.22 13266.74c35.63,-176.99 9.91,-342.34 -166.3,-364.5 -15.43,164.92 14.81,341.57 166.3,364.5z"/>
  <path class="fil11 str6" d="M11955.2 11442.95c450.55,-26.94 1283.11,123.81 1676.17,266.05 408.79,147.94 592.37,305.91 861.45,420.02 383.9,162.83 696.02,93.6 1099.3,-1.89 183.91,-43.55 838.74,-250.78 938.19,-337.66 -45.99,-212.62 -196.14,-561.66 -283.41,-757.96 -281.39,-633.03 -592.74,-1069.03 -1046.61,-1564.29 -352.62,-384.79 -1013.92,-854.11 -1600.67,-1009.3 -653,-172.72 -1197.86,-46.55 -1654.92,266.2 0,28.79 6.89,23.09 -21.3,16.28l-38.33 39.66c-0.57,22.55 4.06,15.88 -20.72,10.56l-21.21 15.26c-210.65,172.17 -402.31,422.16 -541.92,749.83 -138.67,325.5 -172.02,718.64 -181.55,1107.57 -34.58,1409.58 360.73,808.08 835.53,779.67zm-536.84 -1859.35c-7.67,85.64 -89.05,280.66 -114.13,395.87 -17.24,79.16 -24.84,153.52 -36.2,235.12 -21.43,153.88 -6.47,159.37 -68.72,184.18 -74.91,-195.93 73.32,-631.2 162.93,-772.64l13.59 -28.6 20.13 -26.79c19.22,-21.61 -43.21,-25.8 28.24,-16.65 23.49,52.39 6.41,15.94 -5.84,29.51zm1649.91 173.3l102.71 -108.63c6.92,-6.79 8.79,-10.17 14.81,-16.99 9.74,-11.02 20.97,-19.63 30.72,-30.66 11.22,-12.71 14.77,-19 30.36,-30.98l131.47 -111.74c96.26,-77.63 170.41,-124.17 273.27,-181.43 98.94,-55.07 198.93,-91.44 308.66,-118.31l-19.04 -13.27c15.55,0 32.14,3.42 46.76,6.73 15.4,-3.52 33.31,-7.43 50.02,-7.43l-20.67 14.35c109.81,26.9 209.79,63.32 308.74,118.63 102.46,57.26 176.3,103.8 272.18,181.43l130.95 111.74c15.53,11.98 19.04,18.27 30.24,30.99 9.71,11.02 20.87,19.63 30.58,30.65 6,6.82 7.87,10.2 14.76,16.99l102.29 108.63c5.01,6.28 9.96,10.28 15.7,16.07 6.13,6.19 7.59,9.81 13.51,15.96 10.19,10.58 18.66,19.64 28.38,30.59 15.95,17.96 107.05,123.26 108.32,132.1 0,34.54 0.41,39.74 -13.02,52.76 -10.9,10.54 -19.91,19.86 -30.64,30.59 -31.77,31.78 -40.65,50.46 -72.02,50.46 -15.59,-6.35 -71.99,-69.73 -86.72,-85.64 -9.25,-10.01 -18.61,-18.56 -28.37,-28.33 -48.22,-48.21 -101.1,-122.79 -159.24,-124.26 -42.67,-1.08 -105.92,18.51 -132.05,38.24l-59.11 54.29c-10.11,8.9 -18.43,18.84 -28.32,28.37 -6.16,5.95 -9.77,7.39 -15.97,13.52 -5.07,5.02 -8.48,8.58 -13.56,13.66l-218.97 207.43c-26.07,21.79 -57.95,53.52 -89.35,83.58l21.66 9.71c6.5,7.91 143.14,110.57 149.97,115.66 13.09,9.78 24.07,18.58 37.43,28.51l173.02 156.54c5.94,5.69 10.01,10.22 15.85,15.97l34.3 31.6c33.62,27.98 69.47,66.07 103.41,94.33l224.44 207.39c5.5,5.5 10.14,10.92 16.01,15.81l52.27 47.73c7.2,7.21 10.08,9.81 17.99,16.1l53 47c29.66,22.95 54.34,49.91 90.54,73.13 6.19,3.97 17.99,8.5 22.18,11.93 6.11,5.02 8.74,15.06 9.34,22.61 2.73,34.3 -40.55,72.78 -64.49,101.29l-101.19 98.81c-17.64,16.91 -37.89,36.81 -62.18,31.38 -13.17,-2.94 -13.01,-4.72 -19.12,-15.12 -11.84,-20.12 -42.23,-57.69 -57.67,-74.13 -6.06,-6.45 -7.92,-10.36 -14.78,-17.03 -7.27,-7.08 -9.51,-11.27 -15.91,-18.16 -10.78,-11.62 -21.83,-21.49 -33.1,-32.81l-130.89 -132.73c-11.86,-11.8 -19.97,-22.18 -31.88,-34.03l-23.49 -24.23c-4.45,-3.71 -5.62,-4.69 -9.55,-8.63 -22.84,-22.94 -44.21,-44.08 -67.16,-66.93l-67.17 -64.65c-22.57,-22.47 -43.47,-43.29 -66.04,-65.77l-134.35 -131.55c-39.69,-39.51 -65.07,-59.58 -107.07,-106.56l-84.22 -97.56c-6.19,-6.48 -8.62,-10.53 -14.81,-17.01 -14.11,-14.75 -33.99,-42.72 -49.25,-55 -0.3,-1.34 -1.41,-3.69 -3.03,-6.68 -1.81,3.32 -3.07,5.94 -3.4,7.38 -15.2,12.28 -34.99,40.25 -49.05,55 -6.16,6.48 -8.57,10.53 -14.74,17.01l-83.88 97.57c-41.83,46.97 -67.11,67.04 -106.64,106.55l-133.81 131.55c-22.48,22.48 -43.3,43.3 -65.78,65.78l-66.91 64.65c-22.84,22.84 -44.14,43.98 -66.88,66.92 -3.91,3.94 -5.08,4.92 -9.52,8.63l-23.38 24.23c-11.86,11.85 -19.96,22.23 -31.77,34.03l-130.36 132.73c-11.21,11.32 -22.22,21.19 -32.96,32.81 -6.38,6.89 -8.61,11.08 -15.85,18.16 -6.84,6.67 -8.69,10.58 -14.72,17.03 -15.38,16.44 -45.66,54.01 -57.44,74.13 -6.08,10.4 -5.94,12.19 -19.05,15.12 -24.18,5.43 -44.36,-14.47 -61.93,-31.38l-100.78 -98.81c-23.84,-28.51 -66.94,-66.99 -64.24,-101.29 0.6,-7.55 3.23,-17.59 9.31,-22.61 4.18,-3.43 15.93,-7.96 22.09,-11.93 36.05,-23.22 60.65,-50.18 90.18,-73.13l52.8 -47c7.88,-6.29 10.72,-8.89 17.91,-16.1l52.06 -47.73c5.84,-4.89 10.47,-10.31 15.94,-15.81l223.54 -207.39c33.81,-28.26 69.51,-66.35 103,-94.33l34.17 -31.6c5.81,-5.75 9.85,-10.28 15.78,-15.97l172.33 -156.54c13.3,-9.93 24.23,-18.73 37.27,-28.51 6.8,-5.09 142.9,-107.75 149.37,-115.66l21.82 -9.83c-31.94,-30.43 -64.49,-62.75 -91.04,-84.86l-219.86 -207.43c-5.1,-5.08 -8.53,-8.64 -13.62,-13.66 -6.22,-6.13 -9.84,-7.58 -16.03,-13.52 -9.94,-9.53 -18.27,-19.47 -28.43,-28.37l-59.35 -54.29c-26.23,-19.73 -89.75,-39.32 -132.57,-38.24 -58.38,1.47 -111.48,76.05 -159.88,124.26 -9.81,9.77 -19.2,18.32 -28.5,28.33 -14.78,15.91 -71.41,79.29 -87.07,85.64 -31.5,0 -40.4,-18.68 -72.31,-50.46 -10.77,-10.73 -19.82,-20.05 -30.76,-30.59 -13.5,-13.02 -13.08,-18.22 -13.08,-52.76 1.27,-8.84 92.75,-114.14 108.77,-132.1 9.76,-10.95 18.26,-20.01 28.47,-30.59 5.97,-6.15 7.42,-9.77 13.58,-15.96 5.77,-5.79 10.73,-9.79 15.76,-16.07zm-1807.38 786.81c0.06,0.14 44.89,204.7 -38.67,239.88 -26.65,-44.53 -26.58,-70.98 -25.48,-135.41 2.63,-156.75 14.57,-115.17 39.86,-131.62 26.16,22.84 8.91,-8.5 24.29,27.15z"/>
  <path class="fil11 str6" d="M15070.12 8956.96c646.91,605.95 1031.19,1134.43 1416.34,1945.26 95.7,201.47 251.13,589.17 300.51,817.78 6.72,9.61 13.34,12.83 21.05,34.67 6.39,18.13 7.71,37.41 11.05,56.01 20.65,206.87 139.01,472.58 152.83,709.53 2.54,3.5 5.66,5.28 6.89,11.01 1.47,6.89 11.59,16.17 14.07,18.4 6.5,5.88 8.67,8.92 9.04,10.38 2.38,0.18 6.78,0.99 14.53,3.08l88.43 -14.95c6.76,-7.85 -13.98,-28.48 23.31,-13.34 24.18,9.81 24.41,-14.7 15.48,25.72l126.13 -87.39c-8.33,0.96 -16.14,1.15 -23.36,0.52 20.83,-39.03 63.05,-57.74 105.42,-87.77l363.7 -293.06 409.68 -465.37c157.87,-233.9 88.08,-442.71 -3.62,-688.16 -291.4,-780.04 -375.17,-1045.74 -824.52,-1786.61 -48.42,-79.84 -119.45,-173.39 -174.61,-247.28 -60.68,-81.27 -128.6,-172.73 -193.14,-244.87 -76.94,-86.03 -364.96,-378.95 -454.69,-416.61l-39.56 -18.17 22.35 37.17c114.22,160.37 135.46,170.56 2.83,323.72 -46.18,53.32 -96.79,87.01 -150.79,130.37 -55.74,44.75 -106.57,68.06 -154.64,119.28 -3.28,2.97 -8.13,3.17 -9.85,8.94 -1.66,5.63 -7.43,6.81 -9.76,8.54 -2.22,1.65 -6.95,5.72 -9.73,7.64l-65.93 33.1c-66.72,47.14 -175.84,105.34 -259.49,124.14 -21.18,19.61 -38.25,40.77 -77.6,20.29l-206.01 -184.27c-31.73,-40.99 -15.06,-35.66 -55.65,-69.39l-82.72 -58.83c-58.79,-46.83 -3.19,-24.83 -87.95,-83.46l-44.71 -41.23c-137.56,-149.69 -527.1,-389.87 -731.78,-495.75 -620.52,-321.01 -1353.77,-435.29 -2000.91,-121.11 -208.24,101.11 -383.93,242.01 -541.66,396.01 -53.27,52.01 -102.52,116.46 -152.22,159.79 20.25,24.97 44.74,-17.76 166.44,-98.53 963.1,-639.23 2323.95,-197.89 3084.82,514.8zm768.31 189.29c-12.82,9.01 17.2,17.69 -42.77,23.27 -32.3,2.99 -35.7,-17.23 -41.06,-22.22 16.25,-26.46 -2.88,-10.35 39.24,-29.89 155.44,-80.3 295.45,-154.41 431.32,-250.09 93.71,-65.98 310.11,-303.58 385.7,-312.85 -62.59,181.93 -509.96,524.25 -772.43,591.78z"/>
  <path class="fil11 str6" d="M16719.56 11947.76c-197.55,118.09 -1052.16,428.07 -1323.84,406.25 15.65,-44.8 -44.27,-22.57 138.52,-67.6 248.21,-61.15 589.98,-159.72 823.1,-253.54 80.37,-32.36 249.33,-116.1 310.01,-127.11l25.98 -33.32 -32.67 -23.37c-143.18,-13.21 -92.32,12.29 -309.32,99.23 -347.02,139.02 -641.8,219.9 -1018.01,294.73 -1146.37,228 -813.71,-436.64 -2753.13,-688.69 -984.25,-127.9 -819.44,53.92 -1117.69,100.05 -151.59,23.46 -250.68,-57.56 -287.16,-143.18l-16.93 3.6c51.06,169.37 202.01,264.76 398.03,172.55 193.85,-91.15 305.47,-121.37 554.58,-110.38 776.11,34.26 1458.68,178.23 2107.62,544.73 255.6,144.37 447.79,252.33 754.98,242.55 82.83,-2.65 237.86,-34.63 298.64,-25.33 17.94,28.26 24.57,-40.81 11.53,44.29 -10.08,5.63 -29.75,11.83 -47.26,18.1 -474.7,31.88 -539.27,81.55 -1057.36,-224.31 -288.47,-170.31 -609.98,-297.86 -977.64,-381.93 -311.51,-71.24 -873.39,-162.44 -1198.96,-153.74 -282.44,7.55 -336.37,111.77 -533.62,147.11 -206.73,37.03 -348.81,-143.23 -369.1,-312.17 -29.65,-29.27 -17.71,-2.86 -16.1,-51.65 -4.73,2.53 -13.74,-1.51 -15.39,4.72 -6.27,23.62 -9.12,4.09 -21.67,11.6 6.96,254.34 3.06,363.99 213.34,606.2 140.79,162.14 267.86,210.87 540.25,271.71 222.61,49.72 438.06,102.95 667.98,148.71 192.12,38.25 504.35,112.11 697.12,121.46 40.84,9.04 29.56,-5.32 39.31,27.87l108.03 37.75c15.47,-17.55 27.11,-39.62 118.92,-14.89 529.35,142.61 172.79,651.42 1681.57,504.05 594.71,-58.08 1370.63,-288.29 1792.38,-559.32l-130.22 -593.36c-51.86,-57.54 11.21,-23.8 -55.82,-43.37z"/>
  <path class="fil11 str6" d="M18298.22 11431.07c-142.67,380.92 -795.74,1015 -1028.44,1042.05l-126.13 87.39c-0.34,1.48 -0.67,3.04 -1.02,4.7 -8.49,40.07 -31.58,33.98 -74.43,48.43 -54.95,38.91 -80.78,22.15 -134.34,39.84l-392.91 187.29c-176.96,77.48 -366.07,146.83 -556.23,200.62 -8.04,5.2 -15.28,13.74 -36.94,20.92 -18.47,6.13 -37.99,7.23 -56.74,10.22 -54.77,5.27 -461.54,103.38 -692.69,132.45 -1624.55,204.33 -1205.81,-410.89 -1889.04,-546.64 1.19,-1.2 2.31,-2.42 3.42,-3.69l-108.03 -37.75c0.61,2.1 1.33,4.41 2.13,6.92 -27.98,7.76 10.13,11.75 -32.28,5.01 -52.84,-8.43 -13.37,-2.02 -32.79,-12.47 -291.17,4.86 -855.34,-119.32 -1140.83,-185 -444.95,-102.39 -679.53,-153.11 -875.72,-461.78l-10.19 -3.4c132.35,420.74 705.26,549.5 1197.28,670.59l-2.44 29.1c-20.39,22.54 -14.95,8.99 -20.64,42.68 16.41,131.41 213.35,586.58 368.88,677.11 251.3,146.31 443.92,-168.24 415.81,-564.34 -86.17,-45.88 -492.34,-88.75 -627.9,-124.76 -39.21,-12.47 -23.08,12.75 -34.48,-31.58 40.33,-33.88 80.95,-27.92 115.94,4.1 225.25,-4.84 732.29,110.98 917.7,195.87 155.62,71.23 220.28,115.72 312.5,233.24 60.67,77.29 189.58,212.59 326.47,233.26 10.08,5.37 39.1,18.47 43.07,21.09 -7.28,45.22 0.98,15.56 -15.97,22.15l176.63 94.92c-2.18,-1.9 -4.92,-4.28 -8.5,-7.3 12.9,-6.8 6.76,-7.84 36.76,-10.48l711.35 126.12c911.27,145.62 1776.54,99 2650.11,-210.58 680.42,-241.12 1389.49,-647.26 1707.85,-1261.63 424.77,-819.69 -384.53,-1074.25 -300.22,-1161.62 0.98,-1.03 2,-1.95 3.05,-2.76l-255.29 -136.78c-116.65,-42.18 -270.61,-159.38 -356.1,-204.81 -119.32,-63.38 -315.93,-152.62 -455.75,-189.09 31.24,123.38 173.28,485.97 241.24,731.14 47.47,171.23 68.7,155.38 89.95,240.06 92.14,367.11 -195.39,636.38 -449.34,815.04 -46.27,29.34 -54.46,-2.97 -44.14,-26.59 0.94,-2.14 6.31,-6.81 8.76,-10.72 72.4,-69.72 211.73,-210.13 274.63,-296.7 90.59,-124.69 177.39,-221.07 155.99,-431.84zm-5740.46 1431.64c215.82,-67.76 351.22,134.03 309.02,354.67 -51.25,267.89 -332.57,81.75 -338.96,-91.89 -30.81,-10.19 -33.09,-47.49 -34.75,-84.97 -4.78,-107.19 36.2,-92.65 53.19,-100.57l2.1 110.23 34.49 105.96 11.11 -38.45 -13.68 -184.55 -14.45 -36.62c-9.97,-12.6 -19.98,23.89 -8.07,-33.81z"/>
  <path class="fil11 str6" d="M16532.03 11230.92c-167.85,-450.96 -460.71,-1027.59 -760.29,-1392.34l-68.57 -80.75c-43.66,-84.1 -308.23,-372.39 -383.47,-456.72 -695.4,-779.44 -1915.68,-1393.81 -2972.17,-981.87 -227.31,88.65 -374.71,188.57 -528.63,315.98 -98.64,81.69 -307.35,305.55 -358.12,466.51l12.85 11.76c67.9,-110.73 187.76,-230.61 277.41,-311.89 349.15,-316.55 786.28,-482.91 1299.12,-482.6 352.98,0.21 690.74,87.18 981.03,206.95 743.44,306.76 1435.48,1035.22 1861.57,1703.07 274.7,430.56 518.13,901.31 673.84,1405.55 34.74,112.5 12.99,142.8 125.15,167.09l16.44 -18.92c-34.71,-168.97 -117.99,-395.53 -176.16,-551.82z"/>
  <path class="fil11 str6" d="M13068.17 13289.6c107.84,-72.06 149.43,-254.18 158.66,-438.71l-89.12 -17.28c4.32,232.02 -20,263.69 -69.54,455.99z"/>
  <path class="fil12 str6" d="M13162.53 7747.55c762.31,-65.89 1398.31,235.79 1967.57,679.96 272.61,212.71 398.3,364.98 559.62,497.26 -17.1,-279.59 -315.34,-807.84 280.96,-923.9 -372.05,-214.52 -935.51,-462.97 -1416.24,-560.28 -537.87,-108.86 -1246.64,-40.36 -1647.27,224.13l1.88 5.47c129.34,-10.42 498.72,-205.1 811.07,-101.64 -50.82,34.23 -442.95,58.71 -552.24,85.85 -268.8,66.72 -336.68,139.31 -439.04,170.63 141.79,-18.4 273.63,-63.64 433.69,-77.48zm1053.07 -101.12c91.84,-61.69 1206.23,383.81 1276.3,659.46 -94.08,-15.04 -473.43,-291.33 -610.17,-364.72 -167.12,-89.7 -662.15,-292.06 -666.13,-294.74z"/>
  <path class="fil12 str7" d="M13162.53 7747.55c762.31,-65.89 1398.31,235.79 1967.57,679.96 272.61,212.71 398.3,364.98 559.62,497.26 -17.1,-279.59 -315.34,-807.84 280.96,-923.9 -372.05,-214.52 -935.51,-462.97 -1416.24,-560.28 -537.87,-108.86 -1246.64,-40.36 -1647.27,224.13l1.88 5.47c129.34,-10.42 498.72,-205.1 811.07,-101.64 -50.82,34.23 -442.95,58.71 -552.24,85.85 -268.8,66.72 -336.68,139.31 -439.04,170.63 141.79,-18.4 273.63,-63.64 433.69,-77.48zm1719.2 193.62c-167.12,-89.7 -662.15,-292.06 -666.13,-294.74 91.84,-61.69 1206.23,383.81 1276.3,659.46 -94.08,-15.04 -473.43,-291.33 -610.17,-364.72z"/>
  <path class="fil12 str7" d="M15806.96 8120.49c-247.58,154 -100.24,563.63 -50.62,854.25 91.05,-24.83 342.72,-176.47 410.7,-228.33 61.01,-46.54 296.59,-249.45 330.66,-318.27 -88.88,-191.59 -424.33,-473.37 -690.74,-307.65z"/>
  <path class="fil12 str7" d="M15491.9 8305.89c-70.07,-275.65 -1184.46,-721.15 -1276.3,-659.46 3.98,2.68 499.01,205.04 666.13,294.74 136.74,73.39 516.09,349.68 610.17,364.72z"/>
  <path class="fil12 str7" d="M11971.08 8380.9c157.73,-154 333.42,-294.9 541.66,-396.01 647.14,-314.18 1380.39,-199.9 2000.91,121.11 204.68,105.88 594.22,346.06 731.78,495.75l210.54 172.53c68.33,80.66 115.17,107.41 195.21,179.79 45.45,41.09 53.21,94.25 148.89,64.57 83.65,-18.8 192.77,-77 259.49,-124.14l95.27 -58.22c48.07,-51.22 98.9,-74.53 154.64,-119.28 54,-43.36 104.61,-77.05 150.79,-130.37 132.63,-153.16 111.39,-163.35 -2.83,-323.72 -88.49,-66.18 -84.21,-120.87 -255.86,-203.92 -100.54,-48.63 -216.38,-134.4 -298.26,-158.56l-14.67 -12.99 -13.09 -3.55 -19.14 -12.54c-177.26,-105.32 -440.3,-192.48 -617.99,-282.35 179.27,35.34 467.43,154.86 623.03,246.02l80.94 35.28 177.75 113.9c2.87,1.79 6.7,4.29 9.51,6.16 91.54,60.42 269.99,177.09 344.99,253.55 89.73,37.66 377.75,330.58 454.69,416.61 64.54,72.14 132.46,163.6 193.14,244.87 55.16,73.89 126.19,167.44 174.61,247.28 449.35,740.87 533.12,1006.57 824.52,1786.61 91.7,245.45 161.49,454.26 3.62,688.16l-409.68 465.37 -363.7 293.06c-42.37,30.03 -84.59,48.74 -105.42,87.77 7.22,0.63 15.03,0.44 23.36,-0.52 232.7,-27.05 885.77,-661.13 1028.44,-1042.05 21.4,210.77 -65.4,307.15 -155.99,431.84 -62.9,86.57 -202.23,226.98 -274.63,296.7l-8.06 42.56 43.44 -5.25c253.95,-178.66 541.48,-447.93 449.34,-815.04 -21.25,-84.68 -42.48,-68.83 -89.95,-240.06 -67.96,-245.17 -210,-607.76 -241.24,-731.14 139.82,36.47 336.43,125.71 455.75,189.09 85.49,45.43 239.45,162.63 356.1,204.81 22.13,8 42.92,13.3 61.65,14.91 -11.83,-98.99 -185.47,-185.71 -287.62,-240.93 -102.33,-55.32 -230.71,-120.8 -346.84,-168.71 -313.66,-129.37 -257.77,-27.32 -331.72,-200.31 -162.72,-380.68 -316.71,-689.1 -530.36,-1032.58 -218.64,-351.43 -445.68,-594.23 -729.3,-849.94 -444.26,-400.54 -1121.38,-757.62 -1725.97,-885.4 -252.09,-53.3 -659.98,-115.06 -923.35,-111.6 -316.23,4.13 -621.55,64.05 -884.06,166.6 -395.71,154.58 -974.28,583.61 -1230.27,865.32l-241.07 290.7c-138.58,170.13 -304.25,448.84 -366.19,680.7 -23.08,86.41 -27.47,125.14 -61.26,204.85 -281.86,664.84 -140.38,1400.54 -183.3,1641.01 -31.29,175.37 -85.97,208.2 -75.08,435.54 15.25,318.29 151.95,557.59 317.17,704.64l64.54 53.12c64.62,22.23 130.87,64.74 201.42,93.47 202.01,82.29 455.6,173.28 676.1,200.12 48.11,261.29 225.85,678.72 392.69,779.1 220.9,132.93 638.55,-141.6 637.1,-448.62l4.19 -129.08c19.79,0.26 7.71,-8.02 41.81,1.59 38.58,10.86 32.77,14.49 49.49,26.17 213.16,103.74 223.41,103 360.81,253.05 78.48,85.7 204.87,212.53 379.22,231.39 -2.81,-47.52 15.51,-0.81 -18.64,-48.24 -136.89,-20.67 -265.8,-155.97 -326.47,-233.26 -92.22,-117.52 -156.88,-162.01 -312.5,-233.24 -185.41,-84.89 -692.45,-200.71 -917.7,-195.87l-101.93 -12.05c2.96,5.92 4.76,9.41 5.87,16.55 1.05,6.9 11.56,18.74 14.6,22.98 135.56,36.01 541.73,78.88 627.9,124.76 28.11,396.1 -164.51,710.65 -415.81,564.34 -155.53,-90.53 -352.47,-545.7 -368.88,-677.11l-24.16 -26.23 44.8 -16.45 2.44 -29.1c-492.02,-121.09 -1064.93,-249.85 -1197.28,-670.59 -24.75,-21.98 -16.83,26.51 -21.25,-41.38l19.88 18.51c1.43,2.45 5.29,9.89 6.66,12.39 1.43,2.61 2.98,9.37 4.9,13.88 196.19,308.67 430.77,359.39 875.72,461.78 285.49,65.68 849.66,189.86 1140.83,185l23.63 -27.33c-192.77,-9.35 -505,-83.21 -697.12,-121.46 -229.92,-45.76 -445.37,-98.99 -667.98,-148.71 -272.39,-60.84 -399.46,-109.57 -540.25,-271.71 -210.28,-242.21 -206.38,-351.86 -213.34,-606.2l18.64 -92.09c28.4,44.14 23.32,69.6 34.52,127.42 20.29,168.94 162.37,349.2 369.1,312.17 197.25,-35.34 251.18,-139.56 533.62,-147.11 325.57,-8.7 887.45,82.5 1198.96,153.74 367.66,84.07 689.17,211.62 977.64,381.93 518.09,305.86 582.66,256.19 1057.36,224.31 25.5,-24.99 21.27,-20.64 35.73,-62.39 -60.78,-9.3 -215.81,22.68 -298.64,25.33 -307.19,9.78 -499.38,-98.18 -754.98,-242.55 -648.94,-366.5 -1331.51,-510.47 -2107.62,-544.73 -249.11,-10.99 -360.73,19.23 -554.58,110.38 -196.02,92.21 -346.97,-3.18 -398.03,-172.55 -24.55,-15.54 -14.36,37.42 -22.16,-40.63l-4.51 -25.88 37.95 14.58 5.65 48.33c36.48,85.62 135.57,166.64 287.16,143.18 298.25,-46.13 133.44,-227.95 1117.69,-100.05 1939.42,252.05 1606.76,916.69 2753.13,688.69 376.21,-74.83 670.99,-155.71 1018.01,-294.73 217,-86.94 166.14,-112.44 309.32,-99.23l51.22 14.74c-15.95,23.3 1.32,15.1 -44.53,41.95 -60.68,11.01 -229.64,94.75 -310.01,127.11 -233.12,93.82 -574.89,192.39 -823.1,253.54 -182.79,45.03 -122.87,22.8 -138.52,67.6 271.68,21.82 1126.29,-288.16 1323.84,-406.25 21.01,-29.4 -36.18,-15.82 47.02,-27.57 -0.25,50.85 -7.72,5.19 8.8,70.94l130.22 593.36c-421.75,271.03 -1197.67,501.24 -1792.38,559.32 -1508.78,147.37 -1152.22,-361.44 -1681.57,-504.05 -91.81,-24.73 -103.45,-2.66 -118.92,14.89 -1.11,1.27 -2.23,2.49 -3.42,3.69 683.23,135.75 264.49,750.97 1889.04,546.64 231.15,-29.07 637.92,-127.18 692.69,-132.45 21.6,-13.81 -19.99,-1.18 33.19,-19.01 25.31,-8.48 34.73,-7.64 60.49,-12.13 190.16,-53.79 379.27,-123.14 556.23,-200.62l392.91 -187.29c53.56,-17.69 79.39,-0.93 134.34,-39.84 3.66,-3.02 9.69,-11.51 11.63,-8.21 4.76,8.16 16.58,-10.83 21.84,-15.37 24.62,-21.27 10.08,4.37 28.69,-34.53l-25.5 -7.4 -88.43 14.95c-9,9.91 -1.75,38.24 -28.42,10.36 -23.74,-24.84 -10.71,-20.5 -16.11,-53.23 -13.82,-236.95 -132.18,-502.66 -152.83,-709.53 -12.44,-18.86 -1.61,17.21 -19.55,-33.35 -7.13,-20.13 -8.61,-37.31 -12.55,-57.33 -49.38,-228.61 -204.81,-616.31 -300.51,-817.78 -385.15,-810.83 -769.43,-1339.31 -1416.34,-1945.26 -760.87,-712.69 -2121.72,-1154.03 -3084.82,-514.8 -121.7,80.77 -146.19,123.5 -166.44,98.53 49.7,-43.33 98.95,-107.78 152.22,-159.79zm1191.45 -633.35c-160.06,13.84 -291.9,59.08 -433.69,77.48 102.36,-31.32 170.24,-103.91 439.04,-170.63 109.29,-27.14 501.42,-51.62 552.24,-85.85 -312.35,-103.46 -681.73,91.22 -811.07,101.64 -12.33,13.02 20.25,17.66 -39.72,32.07 -83.39,20.04 -15.88,3.9 -43.51,-10.39l81.35 -27.15c400.63,-264.49 1109.4,-332.99 1647.27,-224.13 480.73,97.31 1044.19,345.76 1416.24,560.28 -596.3,116.06 -298.06,644.31 -280.96,923.9 -161.32,-132.28 -287.01,-284.55 -559.62,-497.26 -569.26,-444.17 -1205.26,-745.85 -1967.57,-679.96zm-815 571.69c1056.49,-411.94 2276.77,202.43 2972.17,981.87 75.24,84.33 339.81,372.62 383.47,456.72 2.95,2.79 7.59,2.92 8.92,8.28l59.65 72.47c299.58,364.75 592.44,941.38 760.29,1392.34 58.17,156.29 141.45,382.85 176.16,551.82 18.42,22.35 21.75,-32.49 12.71,35.5l-29.15 -16.58c-112.16,-24.29 -90.41,-54.59 -125.15,-167.09 -155.71,-504.24 -399.14,-974.99 -673.84,-1405.55 -426.09,-667.85 -1118.13,-1396.31 -1861.57,-1703.07 -290.29,-119.77 -628.05,-206.74 -981.03,-206.95 -512.84,-0.31 -949.97,166.05 -1299.12,482.6 -89.65,81.28 -209.51,201.16 -277.41,311.89 -16.39,32.96 5.22,2.37 -23.9,42.47l-41.03 44.75c12.89,-49.34 -0.79,-61.42 52.08,-98.98 50.77,-160.96 259.48,-384.82 358.12,-466.51 153.92,-127.41 301.32,-227.33 528.63,-315.98zm-462.46 460.82l38.33 -39.66 21.3 -16.28c457.06,-312.75 1001.92,-438.92 1654.92,-266.2 586.75,155.19 1248.05,624.51 1600.67,1009.3 453.87,495.26 765.22,931.26 1046.61,1564.29 87.27,196.3 237.42,545.34 283.41,757.96 -99.45,86.88 -754.28,294.11 -938.19,337.66 -403.28,95.49 -715.4,164.72 -1099.3,1.89 -269.08,-114.11 -452.66,-272.08 -861.45,-420.02 -393.06,-142.24 -1225.62,-292.99 -1676.17,-266.05 -474.8,28.41 -870.11,629.91 -835.53,-779.67 9.53,-388.93 42.88,-782.07 181.55,-1107.57 139.61,-327.67 331.27,-577.66 541.92,-749.83 0,-27.08 -6.21,-20.91 21.21,-15.26l20.72 -10.56zm3871.27 194.68c-49.62,-290.62 -196.96,-700.25 50.62,-854.25 266.41,-165.72 601.86,116.06 690.74,307.65 -34.07,68.82 -269.65,271.73 -330.66,318.27 -67.98,51.86 -319.65,203.5 -410.7,228.33zm-2688.17 4314.86c49.54,-192.3 73.86,-223.97 69.54,-455.99l89.12 17.28c-9.23,184.53 -50.82,366.65 -158.66,438.71z"/>
  <path class="fil12 str7" d="M12678.86 13255.81l-37.08 -46.7 -10.57 -26.34c-28.01,2.96 -19.54,-4.43 -21.24,25.99l3.2 -6.74c3.31,3.12 8.33,3.23 9.79,9.47 1.41,6.08 7.39,7.11 9.26,9.42l14.95 19.43c10.05,13.92 17.09,27.37 24.18,37.79l21.46 -13.02c-0.14,-7.05 -12.6,-12.09 -13.95,-9.3z"/>
  <path class="fil12 str7" d="M14320.62 13488.92c330.46,164.41 1278.7,230.31 1606.21,230.31 1151.48,0 2426.8,-353.27 3183.21,-1107.31 165.69,-165.18 477.71,-571.1 476.81,-947.53 -0.66,-279.75 -224.54,-544.6 -355.75,-646.52 -32.58,-25.29 -107.04,-104.74 -142.83,-76.51 -1.05,0.81 -2.07,1.73 -3.05,2.76 -84.31,87.37 724.99,341.93 300.22,1161.62 -318.36,614.37 -1027.43,1020.51 -1707.85,1261.63 -873.57,309.58 -1738.84,356.2 -2650.11,210.58l-711.35 -126.12c-30,2.64 -23.86,3.68 -36.76,10.48 3.58,3.02 6.32,5.4 8.5,7.3 12.26,10.67 6.71,6.35 32.75,19.31z"/>
  <path class="fil12 str7" d="M13965.7 10162c8.39,8.46 15.28,12.83 23.92,21.53l0.25 0.24c8.42,-8.4 15.18,-12.75 23.4,-21.07l69.14 -66.93c15.23,-15.3 29.66,-30.89 45.34,-45.38l254.03 -244.94c8.37,-8.47 15.23,-12.83 23.84,-21.53 50.65,-51.12 102.34,-99.11 83.14,-181.82 -12.43,-53.59 -25.18,-48.24 -28.14,-64.83 -7.66,-0.19 -24.78,-21.37 -30.05,-26.65 -10.35,-10.38 -19.1,-16.96 -29.45,-27.27l-61.23 -52.17c-42.97,-35.06 -84.44,-66.19 -130.07,-98.99l-220.8 -153.97 -220.67 153.27c-45.82,32.79 -87.46,63.93 -130.6,98.99l-61.47 52.17c-10.41,10.31 -19.18,16.89 -29.58,27.27 -5.28,5.28 -22.47,26.46 -30.17,26.65 -2.97,16.59 -15.76,11.24 -28.26,64.83 -19.28,82.7 32.63,130.7 83.48,181.82 8.66,8.7 15.55,13.06 23.94,21.53l255.06 244.94c15.73,14.49 30.23,30.08 45.51,45.38l69.44 66.93z"/>
  <path class="fil11 str6" d="M13965.7 10162c8.39,8.46 15.28,12.83 23.92,21.53l0.25 0.24c8.42,-8.4 15.18,-12.75 23.4,-21.07l69.14 -66.93c15.23,-15.3 29.66,-30.89 45.34,-45.38l254.03 -244.94c8.37,-8.47 15.23,-12.83 23.84,-21.53 50.65,-51.12 102.34,-99.11 83.14,-181.82 -12.43,-53.59 -25.18,-48.24 -28.14,-64.83 -7.66,-0.19 -24.78,-21.37 -30.05,-26.65 -10.35,-10.38 -19.1,-16.96 -29.45,-27.27l-61.23 -52.17c-42.97,-35.06 -84.44,-66.19 -130.07,-98.99l-220.8 -153.97 -220.67 153.27c-45.82,32.79 -87.46,63.93 -130.6,98.99l-61.47 52.17c-10.41,10.31 -19.18,16.89 -29.58,27.27 -5.28,5.28 -22.47,26.46 -30.17,26.65 -2.97,16.59 -15.76,11.24 -28.26,64.83 -19.28,82.7 32.63,130.7 83.48,181.82 8.66,8.7 15.55,13.06 23.94,21.53l255.06 244.94c15.73,14.49 30.23,30.08 45.51,45.38l69.44 66.93z"/>
  <path class="fil11 str6" d="M16225.16 8867.32c-135.87,95.68 -275.88,169.79 -431.32,250.09 -22.47,27.31 -8.51,8.32 -18.72,41.42l63.31 -12.58c262.47,-67.53 709.84,-409.85 772.43,-591.78 -75.59,9.27 -291.99,246.87 -385.7,312.85z"/>
  <path class="fil11 str6" d="M11268.03 10214.59c11.36,-81.6 18.96,-155.96 36.2,-235.12 25.08,-115.21 106.46,-310.23 114.13,-395.87l-22.4 -12.86 -20.13 26.79c6.83,34.23 16.58,28.6 -13.59,28.6 -89.61,141.44 -237.84,576.71 -162.93,772.64 62.25,-24.81 47.29,-30.3 68.72,-184.18z"/>
  <path class="fil11 str6" d="M11260.89 10543.71c-15.38,-35.65 1.87,-4.31 -24.29,-27.15 -25.29,16.45 -37.23,-25.13 -39.86,131.62 -1.1,64.43 -1.17,90.88 25.48,135.41 83.56,-35.18 38.73,-239.74 38.67,-239.88z"/>
  <path class="fil11 str6" d="M14215.6 7646.43c3.98,2.68 499.01,205.04 666.13,294.74 136.74,73.39 516.09,349.68 610.17,364.72 -70.07,-275.65 -1184.46,-721.15 -1276.3,-659.46z"/>
  <path class="fil12 str8" d="M15806.96 8120.49c-247.58,154 -100.24,563.63 -50.62,854.25 91.05,-24.83 342.72,-176.47 410.7,-228.33 61.01,-46.54 296.59,-249.45 330.66,-318.27 -88.88,-191.59 -424.33,-473.37 -690.74,-307.65z"/>
  <path class="fil13" d="M6928.09 5768.58l-559.09 -189.78c-42.59,-17.4 -70.78,-30.23 -85.07,-38.92l-1.83 2.28 485.22 426.97 -192.73 240.42 -987.37 -868.82 192.73 -240.42 469.71 413.31 1.83 -2.29c-19.06,-28.74 -35.7,-56.99 -49.71,-84.53l-273.09 -512.05 228.51 -285.05 289.11 641.1 715.62 206.07 -233.84 291.71zm532.28 -1521.05c87.86,99.78 150.54,204.24 188.42,313.45 37.72,109.39 47.51,213.42 29.18,311.83 -18.11,98.65 -62.37,181.88 -132.72,250.1 -68.45,66.37 -149.34,105.78 -242.71,117.87 -93.39,12.08 -189.41,-4.82 -287.93,-50.86 -98.33,-46.22 -190.17,-117.59 -275.11,-214.07 -89.1,-101.19 -153.24,-207.31 -193,-318.65 -39.58,-111.53 -50.25,-216.89 -31.99,-316.13 18.05,-99.45 63.49,-184.26 136.1,-254.67 69.84,-67.71 150.9,-107.31 243.23,-118.37 92.51,-11.25 188.16,7.78 287.12,56.89 98.97,49.12 191.98,123.3 279.41,222.61zm-225.98 234.89c-71.82,-81.57 -139.91,-134.77 -204.45,-159.41 -64.53,-24.65 -116.8,-17.81 -156.75,20.93 -43.78,42.45 -57.83,98.16 -42.39,166.9 15.27,68.91 59.32,144.54 132.19,227.28 70.99,80.63 138.73,131.97 202.64,153.72 64.09,21.57 116.91,12.43 158.6,-27.99 25.54,-24.75 39.34,-56.98 41.76,-97.03 2.42,-40.04 -7.38,-84.44 -29.57,-133.06 -22.01,-48.77 -56.01,-99.09 -102.03,-151.34zm1502.57 -411.04l-425.83 -591.23c-40.14,-55.73 -82.85,-117.91 -128.49,-186.63l-34.01 -50.92 -6.6 5.25c49.36,94.04 82.49,159.8 99.76,197.37l350.39 741.27 -224.13 178.21 -583.49 -543.82c-15.04,-13.47 -67.74,-67.7 -158.28,-162.94l-6.59 5.24c126.43,164.44 204.92,267.64 235.25,309.76l366.27 508.52 -209.24 166.38 -776.92 -1078.69 357.21 -284.04 530.53 499.09c11.33,9.98 32.3,31.68 63.26,65.22 30.61,33.43 53.78,59.84 69.34,78.97l3.39 -2.71c-28.97,-48.85 -61.22,-107.63 -97.13,-176.82l-318.12 -663.54 351.75 -279.69 776.93 1078.69 -235.25 187.06zm958.27 -616.76l-462.14 -882.16 -300.35 174.46 462.14 882.16 -261.89 152.11 -620.91 -1185.24 824.13 -478.7 620.92 1185.25 -261.9 152.12zm1004.92 -495.79l-134.71 -210.24 -271.4 125.01 51.6 248.54 -296.07 136.38 -200.5 -1385.21 340 -156.62 808.45 1105.16 -297.37 136.98zm-575.06 -891.82l-6.28 2.89c4.88,14.29 11.49,38.32 19.38,72.34 8.23,34.2 38.86,182.27 92.32,444.02l174 -80.16 -203.08 -308.21c-29.42,-45.54 -55.02,-89.33 -76.34,-130.88zm1590.4 487.65l-156.53 -477.14 -323.88 118.74 156.53 477.15 -282.39 103.54 -419.81 -1279.7 282.39 -103.54 155.33 473.5 323.88 -118.75 -155.33 -473.49 282.4 -103.55 419.81 1279.71 -282.4 103.53zm1140.6 -308.47l-110.22 -556.58c-16.13,-81.46 -29.25,-155.01 -39.42,-220.98l-2.78 0.62c-4.88,22.86 -10.76,47.92 -17.79,74.55 -7.02,26.64 -86.05,291.29 -237.15,793.67l-256.33 57.45 -262.57 -1325.96 270.18 -60.54 114.41 577.74c14.19,71.66 23.18,124.39 26.98,158.14l2.77 -0.62c0.71,-6.09 1.84,-12.61 3.24,-20.17 1.68,-7.3 12.57,-47.34 32.42,-120.04l207.91 -681.94 275.95 -61.84 262.58 1325.95 -270.18 60.55zm936.86 -157.79l-50.08 -486.93 -23.44 2.81c-76.67,9.17 -120.69,77.42 -131.78,205.06l-26.6 306.79 -335.09 40.07 47.46 -360.26c8.92,-70.24 26.66,-128.53 52.99,-174.87 26.57,-46.35 64.71,-84.04 114.86,-113.42l-0.39 -3.84c-144.61,-30.45 -226.23,-136.28 -244.9,-317.83 -12.7,-123.5 12.71,-222.65 76.2,-297.78 63.48,-75.13 164.16,-120.94 301.8,-137.4l377.28 -45.12 138.54 1347.21 -296.85 35.51zm-108.85 -1058.53l-50.19 6c-43.14,5.16 -74.75,20.95 -95.09,47.09 -20.33,26.14 -28.06,61.8 -23.41,107.03 4.59,44.59 20.54,79.69 48.1,105.29 27.33,25.65 61.36,35.85 101.7,31.03l48.77 -5.83 -29.88 -290.61zm1668.89 566.47c3.67,134.22 -30.54,237.53 -102.89,310.26 -72.11,72.73 -177.71,111.47 -316.81,116.57 -61.75,2.27 -119.46,-2.07 -172.85,-13.04 -53.64,-10.95 -98.68,-27.38 -135.16,-49.29l-8.84 -323.31c39.54,30.85 83.61,54.44 131.96,70.75 48.35,16.3 96.45,23.58 144.31,21.83 107.27,-3.93 159.57,-50.42 157.13,-139.46 -1.22,-44.2 -17.71,-77.83 -49.5,-101.22 -31.78,-23.06 -75.96,-33.71 -132.54,-31.64l-142.87 5.23 -8.1 -296.19 136.02 -4.98c52.57,-1.93 91.89,-13.7 118.45,-35.03 26.31,-21.63 38.86,-54.38 37.66,-98.58 -1.09,-39.7 -12.98,-68.65 -35.65,-86.55 -22.69,-18.22 -56.89,-26.34 -102.86,-24.65 -70.48,2.58 -145.38,33.75 -224.45,93.49l-8.31 -303.62c94.09,-54.15 193.83,-82.99 299.21,-86.85 115.98,-4.26 205.92,22.48 269.81,80.54 63.88,57.73 97.32,141.77 100.34,252.11 2.3,83.89 -13.68,155.21 -48.17,214.28 -34.26,58.76 -84.15,98.37 -149.44,118.52l0.12 4.52c72.71,9.28 130.7,41.72 174.47,97.29 43.76,55.55 66.66,125.12 68.96,209.02zm762.31 438.36l-27.29 -252.24 -295.06 -19.22 -63.07 246.36 -321.88 -20.97 428.62 -1331.17 369.64 24.07 232.33 1374.23 -323.29 -21.06zm-119 -1071.73l-6.83 -0.44c-1.93,15.09 -6.59,39.69 -14.49,73.8 -7.68,34.45 -45.35,181.17 -112.55,440.21l189.17 12.32 -44.97 -372.48c-6.13,-54.75 -9.63,-106.11 -10.33,-153.41zm1294.22 1161.8c-86.8,27.92 -183.15,33.88 -289.31,18.15 -104.29,-15.45 -190.53,-55.97 -258.45,-121.82 -67.92,-65.87 -114.87,-152.13 -140.57,-259.07 -25.75,-106.6 -29.23,-225.89 -10.73,-357.61 19.89,-141.62 60.04,-264.57 120.1,-368.25 60.1,-104.01 135.32,-179.99 225.43,-227.99 89.91,-48.37 187.93,-64.51 294.09,-48.79 84.92,12.59 164.85,38.79 240.22,78.66l-52.55 374.04c-24.16,-26.42 -54.35,-48.85 -90.39,-66.92 -36.05,-18.07 -73.46,-29.81 -112.19,-35.55 -80.26,-11.89 -147.94,10.4 -203.22,66.49 -55.04,56.13 -90.13,138.06 -105.31,246.11 -15.09,107.42 -3.9,195.55 33.58,264.42 37.73,68.89 95.2,109.07 172.66,120.54 71.63,10.61 147.23,-3.64 227.26,-42.69l-50.62 360.28zm865.09 -834.9l-238.18 1007.32 -291.14 -73.94 238.18 -1007.31 -269.18 -68.37 73.46 -310.67 832.23 211.38 -73.45 310.66 -271.92 -69.07zm1184.96 482.48c-25.42,88.89 -64.49,162.8 -117,221.77 -52.49,58.98 -114.7,97.76 -186.27,116.81 -71.56,19.04 -147.89,16.06 -228.52,-8.83l-87.19 -26.9 -119.55 418.18 -285.95 -88.23 371.95 -1301.02 388.95 120.01c133.49,41.19 221.37,106.06 263.56,194.93 42.04,88.48 41.99,206.44 0.02,353.28zm-306.03 -79.93c15.24,-53.28 15.46,-97.03 0.89,-131.2 -14.79,-34.22 -43.88,-58.02 -87.47,-71.48l-54.2 -16.72 -91.93 321.53 64.15 19.79c81.99,25.3 138.1,-15.36 168.56,-121.92zm1278.41 718.76c-46.92,127.35 -108.85,233.11 -185.69,317.68 -77.05,84.49 -161.71,140.31 -253.86,167.18 -92.27,27.16 -182.76,22.83 -271.83,-12.78 -86.65,-34.64 -155.7,-93.06 -206.83,-175.48 -51.13,-82.41 -78.64,-180.3 -82.3,-293.61 -3.45,-113.2 17.45,-231.55 62.82,-354.68 47.59,-129.16 110.3,-237.03 188.13,-324.33 78.06,-87.2 163.49,-144.44 256.31,-171.73 92.93,-27.59 185.3,-22.85 277.22,13.89 88.41,35.35 157.68,93.85 207.49,175.74 50.02,81.98 75.56,180.46 76.79,295.56 1.24,115.1 -21.55,235.82 -68.25,362.56zm-299.56 -107.3c38.36,-104.11 54.09,-191.99 46.96,-263.75 -7.12,-71.73 -35.8,-117.83 -86.38,-138.05 -55.42,-22.16 -109.19,-10.41 -161.22,34.91 -52.25,45.24 -97.66,120.57 -136.59,226.18 -37.91,102.9 -52.21,189.64 -42.88,259.48 9.55,69.95 40.44,115.54 93.22,136.65 32.33,12.92 65.92,11.46 101.21,-4.21 35.29,-15.66 68.98,-44.78 100.85,-87.44 32.08,-42.55 60.25,-97.08 84.83,-163.77zm785.42 1146.41l262.56 -499.84c38.42,-73.14 74.2,-138.21 107.51,-195.47l-2.48 -1.43c-17.88,14.1 -37.89,29.2 -59.73,44.71 -21.84,15.51 -245.88,163.37 -671.95,443.31l-229.1 -131.35 625.47 -1190.75 241.49 138.44 -280.42 533.85c-31.42,59.83 -54.7,101.07 -69.99,124.03l2.48 1.42c4.33,-4.16 9.22,-8.36 14.98,-13.17 5.8,-4.41 38.89,-27.51 99.03,-69.4l580.47 -378.07 246.65 141.4 -625.48 1190.76 -241.49 -138.44zm958.53 -1548.73c-58.93,95.33 -126.95,156.3 -204.1,182.53 -76.95,26.34 -156.73,15.65 -239.3,-31.69 -53.87,-30.88 -94.55,-71.53 -121.77,-121.44 -27.08,-50.21 -39.71,-105.4 -37.75,-165.88 1.9,-60.89 18.08,-121.34 48.11,-181.57l168.63 96.67c-17.21,46.56 -23.05,87.85 -17.22,123.28 5.82,35.44 23.62,61.87 53.97,79.27 28.48,16.32 58.98,17.58 90.86,3.4 32.24,-14.35 62.09,-41.51 89.32,-81.59l169.25 97.02zm194.21 2786.56l205.62 -313.8 -949.12 -680.91 734.38 -1120.72 245.72 176.29 -546.59 834.13 153.73 110.28 546.58 -834.13 245.74 176.29 -546.6 834.13 153.73 110.28 546.59 -834.13 245.72 176.28 -546.59 834.14 125.78 90.23 -393.42 600.38 -221.27 -158.74zm1019.22 434.84l367.03 -421.64c53.71,-61.7 103.05,-116.19 148.24,-163.7l-2.09 -1.99c-20.52,9.3 -43.32,19.05 -68.01,28.74 -24.68,9.71 -275.28,98.27 -751.61,265.47l-192.83 -184.43 874.39 -1004.47 203.26 194.41 -381 437.66c-47.25,54.28 -82.86,92.99 -106.8,116.11l2.09 1.99c5.13,-2.98 10.82,-5.85 17.49,-9.12 6.63,-2.86 43.92,-17.16 111.68,-43.08l648.2 -224.56 207.59 198.56 -874.39 1004.46 -203.24 -194.41zm697.22 795.16l275 -547.77c23.7,-41.26 40.64,-68.36 51.27,-81.74l-1.82 -2.26 -485.22 433.32 -192.74 -237.91 987.36 -881.75 192.74 237.91 -469.71 419.46 1.83 2.26c30.32,-15.1 59.75,-27.78 88.07,-37.84l528.55 -200.28 228.51 282.08 -652.65 196.12 -317.35 707.04 -233.84 -288.64z"/>
  <path class="fil13" d="M9185.49 18222.86c-65.71,95.74 -146.77,169.32 -243.09,221.1 -96.57,51.64 -199.31,77.05 -308.06,75.98 -108.9,-0.84 -212.9,-27.9 -312.4,-81.07 -96.82,-51.75 -171.15,-119.08 -222.63,-202.11 -51.5,-83.02 -74.33,-173.06 -68.24,-269.97 6.31,-96.78 41.19,-191.64 104.71,-284.19 66.66,-97.1 148.81,-172.26 246.53,-226.08 97.98,-53.69 201.73,-80.1 311.29,-79.22 109.71,0.64 215.83,28.53 318.53,83.42 98.76,52.8 173.36,120.25 223.36,202.49 50.27,82.36 70.75,172.4 61.71,270.21 -9.04,97.8 -46.3,194.17 -111.71,289.44zm-335.8 -168.31c53.72,-78.28 79.86,-148.64 78.17,-211.26 -1.69,-62.6 -30.58,-109.06 -87.1,-139.27 -61.91,-33.09 -125.02,-37.04 -189.16,-12.09 -64.39,24.81 -123.62,76.87 -178.12,156.28 -53.1,77.35 -77.48,147.12 -73.07,208.69 4.65,61.71 36.14,108.32 95.1,139.83 36.13,19.32 75,26.76 117.13,22.62 42.15,-4.16 83.66,-20.11 124.3,-47.99 40.88,-27.78 78.33,-66.67 112.75,-116.81zm1483.08 633.56c-55.47,100.62 -128.59,180.56 -219.26,240.15 -90.94,59.46 -190.8,93.41 -299.46,101.59 -108.8,8.41 -215.48,-9.62 -320.44,-53.96 -102.11,-43.15 -183.44,-103.69 -243.63,-181.74 -60.18,-78.05 -92.5,-165.5 -96.69,-262.22 -3.93,-96.63 20.84,-193.75 74.46,-291.04 56.25,-102.05 130.3,-183.66 222.16,-245.38 92.12,-61.63 192.89,-96.65 302.33,-105.09 109.6,-8.67 218.47,10 326.79,55.77 104.18,44.03 185.79,104.66 244.41,182.06 58.89,77.5 88.86,165.14 90.2,263.01 1.32,97.86 -25.68,196.7 -80.87,296.85zm-353.03 -138.58c45.34,-82.27 63.98,-154.35 55.67,-216.38 -8.31,-62.01 -42.07,-105.67 -101.69,-130.86 -65.3,-27.59 -128.7,-26.17 -190.09,4.05 -61.64,30.1 -115.26,86.82 -161.27,170.28 -44.81,81.31 -61.77,152.63 -50.84,213.4 11.17,60.88 47.54,104.46 109.73,130.75 38.1,16.09 77.69,20.18 119.32,12.49 41.62,-7.69 81.37,-27.05 118.99,-58.2 37.87,-31.04 71.13,-72.83 100.18,-125.53zm1539.63 507.45c-44.66,104.62 -109.15,190.22 -193.32,257.11 -84.44,66.79 -180.52,109.02 -288.11,126.4 -107.71,17.64 -216.11,8.85 -325.59,-26.22 -106.52,-34.12 -194.14,-87.28 -262.52,-159.63 -68.37,-72.34 -109.93,-156.4 -124.4,-252.06 -14.21,-95.59 0.2,-194.13 43.37,-295.28 45.3,-106.12 110.53,-193.44 195.66,-262.56 85.39,-69.03 182.26,-112.4 290.62,-130.12 108.45,-17.95 219.13,-8.71 332.12,27.49 108.68,34.81 196.57,88.05 263.33,159.87 67.02,71.91 106.27,156.35 118,253.41 11.73,97.04 -4.71,197.45 -49.16,301.59zm-367.11 -107.45c36.51,-85.54 47.44,-158.69 32.55,-219.55 -14.89,-60.86 -53.23,-101.32 -115.41,-121.24 -68.13,-21.82 -131.27,-14.99 -189.33,20.24 -58.33,35.15 -105.82,96.03 -142.86,182.81 -36.09,84.54 -45.42,156.8 -28.07,216.18 17.64,59.48 58.57,99.65 123.45,120.43 39.74,12.73 79.69,13.42 120.43,2.23 40.73,-11.19 78.35,-33.81 112.58,-67.93 34.5,-34.05 63.26,-78.37 86.66,-133.17zm1643.04 108.54l-304.85 -54.51 283.15 -300.44 207.09 37.02 -185.39 317.93zm-408.27 -72.99l-305.14 -54.56 283.44 -300.41 206.82 36.99 -185.12 317.98zm1420.43 699.07c-21.39,108.22 -82.44,184.43 -183.48,228.87 -100.76,44.49 -235.28,55.34 -403.61,32.85 -74.77,-9.99 -143.35,-24.5 -205.49,-43.5 -62.43,-19.01 -113.49,-40.78 -153.15,-65.32l51.54 -260.65c41.64,32.26 90.14,59.57 145.17,81.88 55.05,22.31 111.52,37.33 169.45,45.08 129.83,17.34 201.69,-9.9 215.89,-81.7 7.05,-35.64 -6.34,-65.73 -40.09,-90.54 -33.82,-24.54 -84.92,-41.51 -153.39,-50.66l-172.92 -23.11 47.22 -238.81 164.62 22c63.62,8.5 113.21,6.59 149.27,-5.42 35.82,-12.3 57.21,-36.15 64.27,-71.79 6.32,-31.99 -2.4,-57.45 -26.24,-76.12 -23.79,-18.93 -63.39,-31.97 -119.03,-39.41 -85.3,-11.4 -181.42,-0.75 -288.06,31.99l48.4 -244.79c123.64,-25.39 249.19,-29.43 376.74,-12.4 140.38,18.77 243.45,57.36 309.15,116.08 65.76,58.46 89.85,132.16 72.25,221.13 -13.37,67.65 -46.3,121.71 -99.17,162.45 -52.52,40.51 -120.18,62.7 -202.6,66.38l-0.72 3.64c85.68,21.32 149.23,58.39 191.2,111.26 41.97,52.86 56.15,112.97 42.78,180.61zm710.83 -484.56c-47.57,217.53 -87.41,373.68 -119.87,469.01 -32.45,95.05 -67.27,167.84 -104.46,217.86 -37.2,50.27 -81.6,86.77 -133.25,110.03 -51.63,23.25 -110.81,33.24 -177.27,30.25 -66.16,-2.99 -122.27,-11.32 -168.66,-24.75l23.04 -261.87c18.52,7.16 41.06,11.35 66.78,12.51 31.78,1.43 61.6,-11.21 89.79,-38.16 28.17,-26.68 54.55,-72.7 79.71,-137.75 24.87,-65.07 53.18,-156.1 84.66,-273.33 31.5,-117.25 61.71,-246.17 90.59,-386.48l849.67 38.28 -97.09 1103.19 -365.74 -16.48 73.36 -833.69 -191.26 -8.62zm1490.6 826.74l-57.85 -201.05 -363.36 15.41 -53.4 205.77 -396.4 16.82 396.22 -1121.12 455.21 -19.32 417.72 1086.6 -398.14 16.89zm-249.56 -853.93l-8.41 0.35c-0.9,12.41 -4.24,32.79 -10.61,61.2 -6.07,28.64 -38.01,151.21 -95.27,367.67l232.96 -9.89 -91.16 -296.39c-12.81,-43.63 -22.08,-84.78 -27.51,-122.94zm1291.85 -104.08l109.24 835.37 -366.15 47.66 -109.25 -835.37 -338.51 44.06 -33.69 -257.64 1046.64 -136.23 33.69 257.65 -341.97 44.5zm1602.74 9.51c26.21,107.76 23.85,209.68 -6.73,305.95 -30.87,96.34 -86.73,178.27 -167.63,245.52 -80.85,67.5 -178.52,113.68 -293.23,138.86 -111.61,24.5 -218.81,24.08 -321.43,-1.54 -102.61,-25.62 -189.59,-74.05 -260.62,-145.33 -70.77,-71.35 -119,-159.21 -144.33,-263.39 -26.59,-109.29 -24.68,-213 5.35,-311.57 30.31,-98.64 86.13,-181.91 167.49,-249.79 81.3,-68.14 181.16,-115.06 299.56,-141.05 113.87,-25 221.37,-24.65 322.27,1.35 101.19,25.93 186.44,75.81 256,149.58 69.56,73.76 117.2,164.17 143.3,271.41zm-378.44 92.74c-21.43,-88.09 -57.03,-153.44 -107.07,-195.99 -50.03,-42.54 -107.51,-56.82 -172.66,-42.52 -71.38,15.66 -120.92,52.36 -148.71,109.84 -28.08,57.53 -31.14,130.83 -9.4,220.2 21.19,87.06 57.59,150.89 108.83,191.01 51.52,40.07 111.02,52.84 179,37.91 41.64,-9.14 76.07,-28.25 103.87,-57.49 27.79,-29.23 45.93,-66.29 54.13,-111.12 8.46,-44.9 5.73,-95.4 -7.99,-151.84zm1419.44 -559.64c21.77,72.32 20.69,142 -2.99,208.98 -23.67,66.96 -68.85,125.74 -134.9,176.46 -66.05,50.72 -149.34,89.41 -249.28,115.92l-108.06 28.66 102.44 340.2 -354.44 94.01 -318.71 -1058.43 482.1 -127.86c165.46,-43.88 295.18,-47.8 389.24,-11.52 93.7,36.1 158.62,114.12 194.6,233.58zm-371.33 110.18c-13.05,-43.34 -36.92,-72.39 -71.31,-87.22 -34.68,-14.75 -78.88,-14.99 -132.92,-0.66l-67.2 17.82 78.77 261.58 79.52 -21.1c101.61,-26.94 139.24,-83.72 113.14,-170.42zm850.89 507.34c-60.54,21.8 -111.06,31.01 -151.68,27.4l-115.16 -273.12c21.53,4.32 45.32,5.86 71.54,4.27 26.33,-1.34 50.84,-6.24 73.65,-14.44 32.31,-11.64 55.38,-28.1 69.9,-49.31 14.12,-21.36 24.73,-54.09 31.79,-98.15l-648.56 -554.76 394.48 -142.03 246.52 256.12c24.99,24.4 48.88,57.32 71.78,99.03l3.25 -1.18c-11.73,-47.13 -17.53,-84.6 -16.91,-112.04l-3.83 -350.24 363.54 -130.89 -66.36 835.72c-8.99,103.99 -24.25,187.2 -46.03,249.78 -21.95,62.89 -53.45,113.53 -94.4,152.12 -41.22,38.7 -102.34,72.5 -183.52,101.72zm1536.34 -637.96l-471 -301.36c-34.26,-25.41 -56.24,-43.35 -66.18,-54.25l-3.12 1.44 265.11 481.12 -329.93 152.17 -539.48 -979 329.94 -152.19 256.63 465.73 3.12 -1.44c-3.83,-28.93 -5.48,-56.81 -4.79,-83.44l-0.36 -498.29 391.17 -180.43 -53.88 610.42 623.06 354.89 -400.29 184.63zm528.41 -1189.16l-179.62 102.71 -109.99 -338.03 265.73 -151.94 23.88 387.26zm-357.52 204.43l-179.86 102.84 -109.74 -338.16 265.47 -151.79 24.13 387.11z"/>
 </g>
</svg>
