<?xml version="1.0" encoding="UTF-8"?>
<!DOCTYPE svg PUBLIC "-//W3C//DTD SVG 1.1//EN" "http://www.w3.org/Graphics/SVG/1.1/DTD/svg11.dtd">
<!-- Creator: CorelDRAW -->
<svg xmlns="http://www.w3.org/2000/svg" xml:space="preserve" width="210mm" height="297mm" version="1.1" style="shape-rendering:geometricPrecision; text-rendering:geometricPrecision; image-rendering:optimizeQuality; fill-rule:evenodd; clip-rule:evenodd"
viewBox="0 0 21000 29700"
 xmlns:xlink="http://www.w3.org/1999/xlink"
 xmlns:xodm="http://www.corel.com/coreldraw/odm/2003">
 <defs>
  <style type="text/css">
   <![CDATA[
    .fil0 {fill:#008A52}
    .fil2 {fill:#FFCA38}
    .fil1 {fill:white}
   ]]>
  </style>
 </defs>
 <g id="Слой_x0020_1">
  <metadata id="CorelCorpID_0Corel-Layer"/>
  <path class="fil0" d="M6383.41 10519.28l0 1145.28 1705.97 -1676.13 0 -1135.68 -1705.97 1666.53zm2487.28 8484.26c3941.21,0 7157.91,-3273.29 7157.91,-7275.99 0,-4007.39 -3216.7,-7272.9 -7157.91,-7272.9 -300.86,0 -597.04,18.86 -888.42,55.09l-1598.86 1572.12 0 -1146.77 42.52 -42.52c-69.38,26.75 -140.26,53.5 -209.53,81.96l0 1107.33 -757.65 -745.08c-55.21,31.55 -108.71,62.99 -162.32,94.54l919.97 899.39 0 1146.88 -1611.44 -1583.2c-1751.69,1327.95 -2890.57,3449.78 -2890.57,5833.16 0,4002.7 3214.99,7275.99 7156.3,7275.99zm-2487.28 -12672.83l0 1146.88 1705.97 -1676.14 0 -1137.27 -1705.97 1666.53zm-167.01 1395.74l0 1146.76 -1705.97 -1676.02 0 -1137.39 1705.97 1666.65zm167.01 0l0 1146.76 1705.97 -1676.02 0 -1137.39 -1705.97 1666.65zm-167.01 1395.62l0 1146.76 -1705.97 -1676.02 0 -1137.28 1705.97 1666.54zm167.01 0l0 1146.76 1705.97 -1676.02 0 -1137.28 -1705.97 1666.54zm-167.01 1397.21l0 1145.28 -1705.97 -1676.13 0 -1135.68 1705.97 1666.53z"/>
  <path class="fil1" d="M8870.69 4344.34c-4002.7,0 -7266.61,3315.92 -7266.61,7383.21 0,4062.49 3263.91,7384.7 7266.61,7384.7 4004.31,0 7268.11,-3322.21 7268.11,-7384.7 0,-4067.29 -3263.8,-7383.21 -7268.11,-7383.21zm-1331.14 12294.8l0 2125.03c-250.46,-50.41 -496.11,-111.91 -737.19,-187.47l0 -6419.11 1053.83 0c274.11,0 463.18,55.09 574.98,162.2 110.31,105.63 160.72,294.58 160.72,568.7l0 3021.34c0,272.52 -50.41,461.48 -160.72,567.1 -167.01,168.49 -474.16,168.49 -730.9,168.49 -55.1,-6.28 -110.31,-6.28 -160.72,-6.28zm1331.14 2254.2c-343.38,0 -682.09,-26.86 -1014.5,-75.67l0 -1866.58c486.73,0 803.37,-165.41 953.01,-497.82l0 1863.49c0,228.39 36.23,422.15 107.22,574.98 -14.18,1.6 -29.95,1.6 -45.73,1.6zm2006.84 -4399.7l-724.61 0 0 -1655.56 -311.84 0 0 5585.79 311.84 0 0 -3618.28 724.61 0 0 3511.17c0,108.71 -7.88,203.24 -25.15,286.69 -508.79,152.83 -1041.25,247.37 -1591.09,278.8 -125.97,-149.63 -144.83,-376.42 -144.83,-565.49l0 -5373.17c0,-278.81 55.1,-474.17 162.21,-585.96 105.51,-110.31 294.58,-167.01 562.41,-167.01 274,0 674.2,-39.32 880.53,167.01 105.51,111.79 155.92,307.15 155.92,585.96l0 1550.05zm2318.8 2882.68c-245.77,195.36 -504.12,373.34 -775.03,535.66l0 -3073.35 -327.62 0 0 3257.62c-250.56,132.26 -508.91,248.86 -775.02,349.68l0 -3517.45c0,-322.93 78.76,-568.7 406.37,-680.61l-362.36 -1989.46 731.01 0 121.29 2173.84 89.73 0 122.89 -2173.84 768.74 0 -411.18 1989.46c344.99,122.88 411.18,334.02 411.18,680.61l0 2447.84zm-2006.84 -3136.22l0 -1235.02 217.3 1108.93c-89.73,33.15 -160.61,75.68 -217.3,126.09zm2263.58 203.13c-58.3,-143.35 -162.21,-259.95 -344.99,-329.22l344.99 -1787.93 0 2117.15zm2397.55 -1720.15c-4.8,33.04 -9.49,64.59 -14.18,97.62l-1184.6 0 0 289.89 177.98 0c340.31,-9.48 721.42,-14.17 907.29,234.68 -154.32,672.72 -401.69,1309.09 -727.7,1895.05l0 -1550.06 -357.57 0 0 2125.04c-239.48,348.07 -507.19,674.2 -801.77,973.47 -14.18,14.17 -26.87,26.75 -39.44,39.43l0 -4587.17 2039.99 0 0 482.05zm-4867.58 -771.83l70.87 359.17c-159,-291.49 -458.38,-437.93 -900.99,-437.93l-311.84 0c-530.86,0 -853.79,212.62 -975.07,633.17 -115,-441.01 -450.61,-660.03 -1009.82,-660.03l-1370.47 0 0 6622.36c-982.96,-360.76 -1866.58,-940.43 -2592.8,-1679.22 -1277.53,-1298 -2069.82,-3089.02 -2069.82,-5061.22 0,-1973.8 792.29,-3764.82 2069.82,-5062.82 1277.54,-1298 3038.61,-2101.37 4977.77,-2101.37 1940.66,0 3701.84,803.37 4979.38,2101.37 1277.42,1298 2068.22,3089.02 2068.22,5062.82 0,75.56 0,149.63 -3.09,223.7l-4932.16 0zm-3443.49 4064.09l316.64 0 0 -3233.96 -316.64 0 0 3233.96z"/>
  <polygon class="fil1" points="2801.26,7836.64 2812.34,8071.44 2845.38,8295.14 2902.08,8506.16 2961.98,8712.49 3045.42,8907.85 3141.56,9096.92 3240.78,9281.19 3358.86,9454.48 3480.26,9621.49 3620.41,9788.38 3910.3,10111.31 4217.45,10412.18 4534.09,10719.33 4847.53,11020.31 5159.37,11327.46 5442.98,11644.1 5583.12,11812.6 5710.8,11979.6 5827.29,12151.3 5928.11,12335.57 6028.93,12526.24 6106.09,12726.28 6167.59,12926.32 6222.69,13143.63 6251.04,13361.05 6268.41,13595.73 6257.32,15552.27 6246.35,15317.48 6211.71,15095.37 6156.5,14882.75 6095.12,14676.42 6016.36,14482.66 5917.14,14287.31 5816.31,14109.33 5699.72,13929.74 5576.83,13762.74 5436.69,13595.73 5148.4,13277.6 4841.24,12965.65 4529.29,12669.58 4211.16,12368.72 3899.21,12056.76 3614.12,11733.84 3475.46,11577.92 3346.29,11399.93 3236.09,11226.64 3135.27,11042.26 3040.74,10853.3 2950.89,10657.94 2889.5,10451.61 2839.09,10240.48 2806.06,10016.78 2790.28,9783.7 "/>
  <polygon class="fil1" points="2476.73,10312.95 2494.1,10561.81 2527.14,10793.4 2588.64,11020.31 2656.31,11237.61 2750.84,11448.74 2851.67,11648.79 2961.98,11842.55 3091.15,12026.81 3225.01,12204.8 3374.64,12384.38 3692.88,12718.39 4026.78,13042.92 4378.06,13367.34 4718.36,13687.18 5052.26,14011.59 5370.5,14347.21 5521.74,14525.19 5655.59,14703.17 5783.16,14887.44 5895.07,15082.8 6006.87,15282.84 6088.83,15493.97 6156.5,15709.79 6218,15936.58 6251.04,16169.78 6268.41,16418.63 6257.32,18488.45 6240.06,18241.2 6206.91,18008.01 6150.22,17781.21 6079.34,17565.39 5994.3,17354.26 5883.99,17154.22 5776.88,16958.86 5649.31,16774.59 5509.16,16596.61 5359.41,16418.63 5047.57,16083.13 4707.27,15752.31 4367.08,15434.07 4022.09,15114.35 3681.79,14785.13 3369.95,14444.83 3214.03,14276.33 3080.06,14091.95 2950.89,13902.99 2839.09,13713.93 2739.87,13509.08 2645.34,13302.75 2577.55,13080.64 2522.45,12860.14 2487.82,12626.94 2472.04,12373.4 "/>
  <path class="fil2" d="M15828.56 9180.36l-4579.29 0c-45.61,-113.39 -116.6,-187.47 -196.84,-187.47 -80.36,0 -151.23,74.08 -196.96,187.47l-163.81 0c-45.72,-113.39 -116.59,-187.47 -196.95,-187.47 -80.25,0 -151.12,74.08 -196.85,187.47l-127.57 0c97.62,-133.85 155.92,-294.57 155.92,-467.87 0,-461.47 -330.81,-836.41 -831.72,-836.41 -502.51,0 -908.89,374.94 -908.89,836.41 0,211.13 159.01,404.89 212.62,548.23 -85.05,18.87 -146.54,92.94 -146.54,182.67 0,94.54 70.98,171.7 162.32,184.39 -50.41,177.98 -228.4,310.23 -228.4,592.24 0,463.19 406.38,836.41 908.89,836.41 500.91,0 831.72,-373.22 831.72,-836.41 0,-173.3 -58.3,-333.9 -155.92,-466.27l127.57 0c45.73,113.39 116.6,187.47 196.85,187.47 80.36,0 151.23,-74.08 196.95,-187.47l163.81 0c45.73,113.39 116.6,187.47 196.96,187.47 80.24,0 151.23,-74.08 196.84,-187.47l3363.14 0 0 187.47 -157.52 0 0 378.02 157.52 0 148.14 206.33 -305.66 -45.61 0 505.6 305.66 0 0 -228.39 453.59 0 0 228.39 305.66 0 0 -505.6 -305.66 45.61 149.74 -206.33 155.92 0 0 -378.02 -155.92 0 0 -187.47 464.68 0c119.68,0 215.82,-99.23 215.82,-220.51l0 -133.86c0,-119.79 -96.14,-219.02 -215.82,-219.02zm-6184.44 -58.29c143.35,3.2 258.34,152.83 258.34,337.1 0,184.27 -114.99,334.01 -258.34,338.7l-77.16 182.67c201.65,0 428.44,26.86 428.44,259.94 0,282.01 -182.67,512 -500.91,512 -319.73,0 -578.07,-229.99 -578.07,-512 0,-220.5 81.85,-253.54 302.35,-324.53l-64.58 -130.65 141.85 -129.18c-78.76,-34.63 -135.57,-113.39 -135.57,-204.84 0,-91.33 56.81,-171.69 135.57,-204.73l-122.88 -94.54 45.61 -135.45c-220.5,-70.88 -302.35,-104.03 -302.35,-324.53 0,-282.01 258.34,-510.4 578.07,-510.4 318.24,0 500.91,228.39 500.91,510.4 0,234.68 -195.36,259.94 -428.44,259.94l77.16 170.1z"/>
  <path class="fil1" d="M8547.77 10220.02c1.6,-275.6 159.12,-418.95 215.82,-563.9 -88.25,-31.54 -151.24,-114.99 -151.24,-212.73 0,-92.93 55.1,-171.69 133.86,-206.33 -59.78,-132.26 -196.84,-315.04 -198.44,-524.57 0,-485.13 425.35,-874.25 946.72,-875.85 521.37,1.6 869.56,395.4 871.05,875.85 0,156.03 -45.61,302.47 -122.77,428.55l29.83 0c47.33,-107.22 122.88,-185.98 222.11,-187.47 99.33,1.49 173.29,80.25 222.1,187.47l113.51 0c47.21,-107.22 122.89,-185.98 222.11,-187.47 99.22,1.49 173.29,80.25 222.1,187.47l4554.03 0 0 77.16 -4606.04 0 -9.49 -23.66c-42.52,-108.71 -107.1,-165.41 -160.6,-163.81 -53.61,-1.6 -118.2,55.1 -160.72,163.81l-9.49 23.66 -217.3 0 -11.09 -23.66c-40.93,-108.71 -105.51,-165.41 -159.12,-163.81 -55.1,-1.6 -118.09,55.1 -162.21,163.81l-9.49 23.66 -229.99 0 45.72 -61.5c92.94,-127.57 148.04,-278.8 148.04,-444.21 -1.49,-442.61 -311.84,-797.09 -792.29,-797.09 -483.65,0 -867.96,359.17 -869.56,797.09 -1.6,192.27 151.23,381.23 209.53,534.06l14.17 42.52 -42.52 9.49c-66.19,14.18 -116.6,73.96 -116.6,144.83 0,74.08 56.7,135.58 129.17,146.55l44.13 4.69 -10.98 44.12c-59.9,195.36 -228.5,316.64 -226.9,581.27 1.6,437.92 385.91,798.69 869.56,798.69 480.45,-1.6 790.8,-354.48 792.29,-798.69 0,-163.81 -55.1,-316.64 -148.04,-444.21l-45.72 -61.39 229.99 0 9.49 23.55c42.52,108.71 107.11,165.41 162.21,163.81 53.61,1.6 118.19,-55.1 160.72,-163.81l9.49 -23.55 215.81 0 10.98 23.55c42.52,108.71 107.11,165.41 160.72,163.81 53.5,1.6 118.08,-55.1 160.6,-163.81l9.49 -23.55 3427.72 0 0 266.12 -157.52 0 0 299.38 138.66 0 214.22 297.66 -352.88 -53.49 0 422.15 230 0 0 -228.4 530.85 0 0 228.4 228.4 0 0 -422.15 -352.88 51.89 214.22 -296.06 138.66 0 0 -299.38 -157.52 0 0 -266.12 504.11 0c97.62,0 177.98,-80.36 177.98,-181.18l0 -133.86c0,-99.33 -80.36,-181.18 -177.98,-181.18l0 -77.16c141.74,0 255.14,116.48 255.14,258.34l0 133.86c0,141.75 -113.4,258.34 -255.14,258.34l-426.95 0 0 111.8 157.52 0 0 453.7 -176.38 0 -83.45 116.59 259.83 -37.83 0 587.55 -382.72 0 0 -228.39 -376.53 0 0 228.39 -384.32 0 0 -587.55 259.95 37.83 -83.57 -116.59 -176.38 0 0 -453.7 157.52 0 0 -111.8 -3298.55 0c-48.81,107.11 -122.88,185.87 -222.1,187.47 -99.22,-1.6 -174.9,-80.36 -222.11,-187.47l-113.51 0c-48.81,107.11 -122.77,185.87 -222.1,187.47 -99.23,-1.6 -174.78,-80.36 -222.11,-187.47l-29.83 0c77.16,125.97 122.77,272.52 122.77,428.44 -1.49,480.45 -349.68,874.25 -871.05,875.85 -521.37,-1.6 -946.72,-389.12 -946.72,-875.85zm946.72 570.3c-337.1,0 -615.91,-242.69 -615.91,-549.84 0,-113.4 22.06,-192.16 80.36,-247.25 50.41,-45.73 116.49,-70.88 204.73,-100.83l-56.69 -116.59 124.48 -113.4c-66.19,-47.32 -108.71,-124.48 -108.71,-211.13 0,-85.05 40.92,-162.21 103.91,-209.42l-97.62 -75.67 40.92 -124.49c-91.33,-29.83 -159.12,-55.09 -211.02,-102.3 -58.3,-55.22 -80.36,-133.98 -80.36,-247.37 0,-307.15 278.81,-549.72 615.91,-549.72 168.49,0 305.55,61.38 398.49,162.21 92.93,100.82 140.25,237.88 140.25,387.51 3.09,127.57 -59.89,214.22 -148.14,253.65 -73.96,33.04 -162.21,40.93 -258.34,44.13l44.12 94.42c157.52,22.06 271.03,185.98 271.03,374.94 0,189.07 -111.91,352.87 -271.03,374.94l-45.61 108.71c85.05,3.08 171.69,12.57 245.65,44.12 92.94,39.32 165.41,122.77 162.32,253.54 0,149.63 -47.32,286.69 -140.25,387.51 -92.94,100.83 -230,162.33 -396.89,162.33 0,0 -1.6,0 -1.6,0zm-538.75 -2098.29c0,107.11 18.86,155.92 55.1,190.67 37.84,36.24 108.71,62.98 220.62,97.62l36.24 12.57 -48.93 146.55 154.43 116.6 -61.49 25.15c-66.08,28.34 -111.8,94.53 -111.8,170.09 0,75.67 45.72,140.26 111.8,168.61l55.21 23.55 -165.41 151.23 72.47 143.34 -42.52 14.18c-111.91,36.24 -182.78,63.1 -220.62,97.74 -36.24,36.23 -55.1,83.44 -55.1,190.55 0,256.74 237.88,472.56 538.75,472.56 297.66,-1.48 458.38,-206.33 461.58,-472.56 -1.6,-103.91 -44.12,-148.03 -114.99,-181.07 -72.47,-31.55 -174.9,-39.43 -274.12,-39.43l-58.3 0 110.31 -261.55 25.15 0c113.4,-1.48 220.51,-129.17 220.51,-299.26 0,-170.1 -107.11,-297.67 -220.51,-299.27l0 -37.83 36.24 -17.27 -36.24 17.27 0 37.83 -25.15 0 -111.91 -247.37 59.9 0c115,0 218.91,-6.28 285.09,-37.72 66.19,-33.15 102.42,-75.67 104.02,-182.78 -3.2,-266.23 -163.92,-470.96 -461.58,-472.56 -300.87,0 -538.75,215.82 -538.75,472.56z"/>
  <path class="fil2" d="M6383.41 10519.28l0 1145.28 1705.97 -1676.13 0 -1135.68 -1705.97 1666.53zm1668.13 -8711.04l-105.5 0 0 1600.46 -433.24 422.15 0 -2022.61 -111.8 0 0 2132.92 -471.07 459.87 0 -2592.79 -105.51 0 0 2696.82 -441.01 430.03 0 1146.77 1705.97 -1676.02 0 -1137.4 -37.84 37.84 0 -1498.04zm-3391.48 0l-111.79 0 0 1498.04 -37.84 -37.84 0 1137.4 1705.97 1676.02 0 -1146.77 -441.12 -430.03 0 -2696.82 -105.51 0 0 2592.79 -470.96 -459.87 0 -2132.92 -105.51 0 0 2028.9 -433.24 -422.15 0 -1606.75zm1693.4 0l-107.11 0 0 3038.61 107.11 0 0 -3038.61zm-137.06 4522.47l0 1146.88 -1705.97 -1676.14 0 -1137.27 1705.97 1666.53zm167.01 0l0 1146.88 1705.97 -1676.14 0 -1137.27 -1705.97 1666.53zm-167.01 1395.74l0 1146.76 -1705.97 -1676.02 0 -1137.39 1705.97 1666.65zm167.01 0l0 1146.76 1705.97 -1676.02 0 -1137.39 -1705.97 1666.65zm-167.01 1395.62l0 1146.76 -1705.97 -1676.02 0 -1137.28 1705.97 1666.54zm167.01 0l0 1146.76 1705.97 -1676.02 0 -1137.28 -1705.97 1666.54zm-167.01 1397.21l0 1145.28 -1705.97 -1676.13 0 -1135.68 1705.97 1666.53z"/>
  <path class="fil1" d="M4470.99 7212.85l0 -1244.39 1772.16 1731.24 -26.75 26.75 26.75 -26.75 12.69 10.97 0 1255.48 -1784.85 -1753.3zm0 -2791.24l0 -1246.1 1772.16 1731.24 -26.75 28.34 26.75 -28.34 12.69 10.97 0 1255.47 -1784.85 -1751.58zm77.28 -33.15l1630.29 1600.46 0 -1038.05 -1630.29 -1590.98 0 1028.57zm1795.7 546.63l0 -17.37 1784.73 -1742.21 0 1246.1 -1784.73 1751.58 0 -1238.1zm78.76 1053.83l1628.81 -1600.46 0 -1028.57 -1628.81 1590.98 0 1038.05zm-78.76 341.79l0 -15.66 1784.73 -1743.81 0 1245.99 -1784.73 1751.7 0 -1238.22zm78.76 1053.83l1628.81 -1600.35 0 -1028.68 -1628.81 1590.98 0 1038.05zm-78.76 341.91l0 -15.78 1784.73 -1742.21 0 1244.39 -1784.73 1753.3 0 -1239.7zm78.76 1053.83l1628.81 -1598.87 0 -1030.28 -1628.81 1591.09 0 1038.06zm-1951.74 -171.7l0 -1244.5 1772.16 1731.24 -26.75 26.75 26.75 -26.75 12.69 10.97 0 1255.47 -1784.85 -1753.18zm77.28 -31.55l1630.29 1600.47 0 -1038.06 -1630.29 -1590.98 0 1028.57zm1795.7 545.04l0 -15.78 1784.73 -1742.21 0 1244.5 -1784.73 1753.18 0 -1239.69zm78.76 1055.43l1628.81 -1600.47 0 -1028.57 -1628.81 1590.98 0 1038.06zm-1951.74 -171.7l0 -1245.99 1772.16 1731.13 -26.75 26.86 26.75 -26.86 12.69 11.08 0 1255.48 -1784.85 -1751.7zm77.28 -33.03l1630.29 1600.34 0 -1038.05 -1630.29 -1590.98 0 1028.69zm1795.7 545.03l0 -15.78 1784.73 -1742.21 0 1245.99 -1784.73 1751.7 0 -1239.7zm78.76 1055.31l1628.81 -1600.34 0 -1028.69 -1628.81 1590.98 0 1038.05zm-1951.74 -5755.88l0 -1244.39 1772.16 1729.52 -26.75 28.35 26.75 -28.35 12.69 12.69 0 1253.88 -1784.85 -1751.7zm77.28 -33.04l1630.29 1600.35 0 -1038.05 -1630.29 -1590.98 0 1028.68zm0 1397.22l1630.29 1598.87 0 -1036.57 -1630.29 -1592.58 0 1030.28z"/>
 </g>
</svg>
